<?xml version="1.0" encoding="utf-8"?>
<!-- Generator: Adobe Illustrator 18.1.1, SVG Export Plug-In . SVG Version: 6.00 Build 0)  -->
<!DOCTYPE svg PUBLIC "-//W3C//DTD SVG 1.1//EN" "http://www.w3.org/Graphics/SVG/1.1/DTD/svg11.dtd">
<svg version="1.1" id="Layer_1" xmlns="http://www.w3.org/2000/svg" xmlns:xlink="http://www.w3.org/1999/xlink" x="0px" y="0px"
	 viewBox="0 0 214 68" enable-background="new 0 0 214 68" xml:space="preserve">
<g>
	<path d="M4.9,11.1c-1.1,0-2-0.3-2.6-0.9S1.4,8.9,1.4,7.9c0-0.8,0.1-1.6,0.4-2.2c0.2-0.7,0.6-1.3,1-1.8c0.4-0.5,1-0.9,1.7-1.2
		c0.7-0.3,1.4-0.4,2.2-0.4c0.5,0,1,0.1,1.4,0.2S9,2.6,9.5,2.9L9.2,4.2H9.1C9,4.1,8.8,3.9,8.7,3.8C8.6,3.7,8.4,3.6,8.1,3.5
		C7.9,3.3,7.7,3.3,7.4,3.2c-0.3-0.1-0.6-0.1-1-0.1c-0.5,0-1,0.1-1.5,0.3C4.4,3.6,4,4,3.7,4.4C3.4,4.8,3.1,5.2,2.9,5.8
		C2.7,6.4,2.6,7,2.6,7.6c0,0.8,0.2,1.4,0.6,1.9s1,0.7,1.8,0.7c0.4,0,0.7,0,1.1-0.1C6.5,10,6.8,9.9,7,9.7c0.3-0.1,0.5-0.2,0.7-0.4
		C7.9,9.2,8.1,9.1,8.2,9h0.1L8,10.3c-0.4,0.2-0.9,0.4-1.4,0.6S5.5,11.1,4.9,11.1z"/>
	<path d="M13,4h4.1c0.7,0,1.3,0.3,1.9,0.8s0.9,1.2,0.9,2c0,0.8-0.3,1.5-0.8,2S17.7,9.5,17,9.5H13v-1h4.1c0.4,0,0.8-0.2,1.2-0.5
		s0.5-0.8,0.5-1.3c0-0.5-0.2-1-0.5-1.3S17.5,5,17.1,5H13V4z"/>
	<path d="M32.7,5.6c0,1-0.2,1.9-0.7,2.7s-1.1,1.5-2,2c-0.5,0.3-1,0.5-1.6,0.6S27.2,11,26.6,11h-2.4l2-8.7h2c0.6,0,1.2,0,1.7,0.1
		c0.5,0.1,1,0.3,1.4,0.6c0.4,0.3,0.7,0.6,0.9,1.1S32.7,5,32.7,5.6z M31.5,5.7c0-0.4-0.1-0.8-0.2-1.2c-0.2-0.3-0.4-0.6-0.7-0.8
		c-0.3-0.2-0.7-0.4-1-0.4s-0.8-0.1-1.4-0.1h-1L25.6,10h1.2c0.6,0,1.1,0,1.5-0.1c0.4-0.1,0.9-0.2,1.2-0.5c0.6-0.4,1.1-0.9,1.4-1.6
		C31.3,7.2,31.5,6.5,31.5,5.7z"/>
</g>
<g>
	<path d="M9.7,33c0,1-0.2,1.9-0.7,2.7s-1.1,1.5-2,2c-0.5,0.3-1,0.5-1.6,0.6s-1.2,0.1-1.8,0.1H1.2l2-8.7h2c0.6,0,1.2,0,1.7,0.1
		c0.5,0.1,1,0.3,1.4,0.6c0.4,0.3,0.7,0.6,0.9,1.1S9.7,32.4,9.7,33z M8.5,33.1c0-0.4-0.1-0.8-0.2-1.2c-0.2-0.3-0.4-0.6-0.7-0.8
		c-0.3-0.2-0.7-0.4-1-0.4s-0.8-0.1-1.4-0.1h-1l-1.6,6.8h1.2c0.6,0,1.1,0,1.5-0.1c0.4-0.1,0.9-0.2,1.2-0.5C7.2,36.5,7.7,36,8,35.3
		C8.3,34.6,8.5,33.9,8.5,33.1z"/>
	<path d="M14,31.4h4.1c0.7,0,1.3,0.3,1.9,0.8c0.6,0.5,0.9,1.2,0.9,2c0,0.8-0.3,1.5-0.8,2s-1.2,0.8-1.9,0.8H14v-1h4.1
		c0.4,0,0.8-0.2,1.2-0.5s0.5-0.8,0.5-1.3c0-0.5-0.2-1-0.5-1.3s-0.8-0.5-1.2-0.5H14V31.4z"/>
	<path d="M31.2,34.4c-0.4,0.4-0.9,0.6-1.5,0.6c-0.2,0-0.7-0.1-1.3-0.4c-0.7-0.2-1.2-0.4-1.4-0.4c-0.5,0-1,0.2-1.4,0.7V34
		c0.4-0.4,0.9-0.6,1.5-0.6c0.3,0,0.8,0.1,1.5,0.4c0.6,0.2,1,0.3,1.2,0.3c0.5,0,1-0.2,1.4-0.7V34.4z"/>
	<path d="M35.2,38.6c-0.6,0-1.1-0.1-1.6-0.2s-1-0.3-1.5-0.5l0.3-1.3h0.1c0.4,0.4,0.8,0.6,1.4,0.8s1.1,0.3,1.6,0.3
		c0.8,0,1.5-0.2,1.9-0.5s0.7-0.8,0.7-1.3c0-0.3-0.1-0.5-0.2-0.7s-0.4-0.3-0.7-0.4c-0.3-0.1-0.6-0.1-0.9-0.2s-0.7-0.1-1-0.2
		c-0.6-0.1-1.1-0.4-1.4-0.7s-0.5-0.7-0.5-1.2c0-0.8,0.4-1.5,1.1-2.1s1.6-0.8,2.7-0.8c0.6,0,1.2,0.1,1.7,0.2s0.9,0.3,1.3,0.4
		l-0.3,1.2h-0.1c-0.3-0.3-0.7-0.5-1.2-0.7s-1.1-0.3-1.6-0.3c-0.7,0-1.3,0.2-1.7,0.5s-0.6,0.7-0.6,1.2c0,0.3,0.1,0.5,0.2,0.7
		s0.4,0.3,0.8,0.4c0.2,0.1,0.6,0.1,1,0.2s0.8,0.2,1,0.2c0.6,0.2,1,0.4,1.3,0.7s0.4,0.7,0.4,1.1c0,0.4-0.1,0.8-0.3,1.1
		s-0.4,0.7-0.8,1c-0.4,0.3-0.8,0.5-1.3,0.7S35.9,38.6,35.2,38.6z"/>
</g>
<g>
	<path d="M5,65.1c-1.1,0-2-0.3-2.6-0.9c-0.6-0.6-0.9-1.4-0.9-2.4c0-0.8,0.1-1.6,0.4-2.2c0.2-0.7,0.6-1.3,1-1.8
		c0.4-0.5,1-0.9,1.7-1.2c0.7-0.3,1.4-0.4,2.2-0.4c0.5,0,1,0.1,1.4,0.2s0.9,0.3,1.4,0.6l-0.3,1.3H9.1C9,58,8.9,57.9,8.7,57.8
		c-0.1-0.1-0.3-0.2-0.6-0.4c-0.2-0.1-0.5-0.2-0.8-0.3c-0.3-0.1-0.6-0.1-1-0.1c-0.5,0-1,0.1-1.5,0.3c-0.5,0.2-0.9,0.5-1.2,1
		c-0.3,0.4-0.6,0.9-0.8,1.5c-0.2,0.6-0.3,1.2-0.3,1.8c0,0.8,0.2,1.4,0.6,1.9s1,0.7,1.8,0.7c0.4,0,0.7,0,1.1-0.1
		c0.3-0.1,0.6-0.2,0.9-0.3c0.3-0.1,0.5-0.2,0.7-0.4c0.2-0.1,0.4-0.3,0.5-0.4h0.1l-0.3,1.3c-0.4,0.2-0.9,0.4-1.4,0.6S5.6,65.1,5,65.1
		z"/>
</g>
<g>
	<path d="M113.1,28.6c-1.1,0-2-0.3-2.6-0.9s-0.9-1.4-0.9-2.4c0-0.8,0.1-1.6,0.4-2.2c0.2-0.7,0.6-1.3,1-1.8c0.4-0.5,1-0.9,1.7-1.2
		c0.7-0.3,1.4-0.4,2.2-0.4c0.5,0,1,0.1,1.4,0.2s0.9,0.3,1.4,0.6l-0.3,1.3h-0.1c-0.1-0.1-0.3-0.2-0.4-0.4c-0.1-0.1-0.3-0.2-0.6-0.4
		c-0.2-0.1-0.5-0.2-0.8-0.3c-0.3-0.1-0.6-0.1-1-0.1c-0.5,0-1,0.1-1.5,0.3c-0.5,0.2-0.9,0.5-1.2,1c-0.3,0.4-0.6,0.9-0.8,1.5
		c-0.2,0.6-0.3,1.2-0.3,1.8c0,0.8,0.2,1.4,0.6,1.9s1,0.7,1.8,0.7c0.4,0,0.7,0,1.1-0.1c0.3-0.1,0.6-0.2,0.9-0.3
		c0.3-0.1,0.5-0.2,0.7-0.4c0.2-0.1,0.4-0.3,0.5-0.4h0.1l-0.3,1.3c-0.4,0.2-0.9,0.4-1.4,0.6S113.7,28.6,113.1,28.6z"/>
	<path d="M121.2,21.4h4.1c0.7,0,1.3,0.3,1.9,0.8s0.9,1.2,0.9,2c0,0.8-0.3,1.5-0.8,2s-1.2,0.8-1.9,0.8h-4.1v-1h4.1
		c0.4,0,0.8-0.2,1.2-0.5s0.5-0.8,0.5-1.3c0-0.5-0.2-1-0.5-1.3s-0.8-0.5-1.2-0.5h-4.1V21.4z"/>
	<path d="M138.3,24.5c-0.4,0.4-0.9,0.6-1.5,0.6c-0.2,0-0.7-0.1-1.3-0.4c-0.7-0.2-1.2-0.4-1.4-0.4c-0.5,0-1,0.2-1.4,0.7V24
		c0.4-0.4,0.9-0.6,1.5-0.6c0.3,0,0.8,0.1,1.5,0.4c0.6,0.2,1,0.3,1.2,0.3c0.5,0,1-0.2,1.4-0.7V24.5z"/>
	<path d="M142.4,28.6c-0.6,0-1.1-0.1-1.6-0.2s-1-0.3-1.5-0.5l0.3-1.3h0.1c0.4,0.4,0.8,0.6,1.4,0.8s1.1,0.3,1.6,0.3
		c0.8,0,1.5-0.2,1.9-0.5s0.7-0.8,0.7-1.3c0-0.3-0.1-0.5-0.2-0.7s-0.4-0.3-0.7-0.4c-0.3-0.1-0.6-0.1-0.9-0.2s-0.7-0.1-1-0.2
		c-0.6-0.1-1.1-0.4-1.4-0.7s-0.5-0.7-0.5-1.2c0-0.8,0.4-1.5,1.1-2.1s1.6-0.8,2.7-0.8c0.6,0,1.2,0.1,1.7,0.2s0.9,0.3,1.3,0.4
		l-0.3,1.2h-0.1c-0.3-0.3-0.7-0.5-1.2-0.7s-1.1-0.3-1.6-0.3c-0.7,0-1.3,0.2-1.7,0.5s-0.6,0.7-0.6,1.2c0,0.3,0.1,0.5,0.2,0.7
		s0.4,0.3,0.8,0.4c0.2,0.1,0.6,0.1,1,0.2s0.8,0.2,1,0.2c0.6,0.2,1,0.4,1.3,0.7s0.4,0.7,0.4,1.1c0,0.4-0.1,0.8-0.3,1.1
		s-0.4,0.7-0.8,1c-0.4,0.3-0.8,0.5-1.3,0.7S143.1,28.6,142.4,28.6z"/>
</g>
<g>
	<path d="M204.1,48.8c-0.4,0.4-0.9,0.6-1.5,0.6c-0.2,0-0.7-0.1-1.3-0.4c-0.7-0.2-1.2-0.4-1.4-0.4c-0.5,0-1,0.2-1.4,0.7v-1.1
		c0.4-0.4,0.9-0.6,1.5-0.6c0.3,0,0.8,0.1,1.5,0.4c0.6,0.2,1,0.3,1.2,0.3c0.5,0,1-0.2,1.4-0.7V48.8z"/>
	<path d="M208.2,52.9c-0.6,0-1.1-0.1-1.6-0.2s-1-0.3-1.5-0.5l0.3-1.3h0.1c0.4,0.4,0.8,0.6,1.4,0.8s1.1,0.3,1.6,0.3
		c0.8,0,1.5-0.2,1.9-0.5s0.7-0.8,0.7-1.3c0-0.3-0.1-0.5-0.2-0.7s-0.4-0.3-0.7-0.4c-0.3-0.1-0.6-0.1-0.9-0.2s-0.7-0.1-1-0.2
		c-0.6-0.1-1.1-0.4-1.4-0.7s-0.5-0.7-0.5-1.2c0-0.8,0.4-1.5,1.1-2.1s1.6-0.8,2.7-0.8c0.6,0,1.2,0.1,1.7,0.2s0.9,0.3,1.3,0.4
		l-0.3,1.2h-0.1c-0.3-0.3-0.7-0.5-1.2-0.7s-1.1-0.3-1.6-0.3c-0.7,0-1.3,0.2-1.7,0.5s-0.6,0.7-0.6,1.2c0,0.3,0.1,0.5,0.2,0.7
		s0.4,0.3,0.8,0.4c0.2,0.1,0.6,0.1,1,0.2s0.8,0.2,1,0.2c0.6,0.2,1,0.4,1.3,0.7s0.4,0.7,0.4,1.1c0,0.4-0.1,0.8-0.3,1.1
		s-0.4,0.7-0.8,1c-0.4,0.3-0.8,0.5-1.3,0.7S208.8,52.9,208.2,52.9z"/>
</g>
<g>
	<g>
		<g>
			<g>
				<polygon fill-rule="evenodd" clip-rule="evenodd" fill="#231F20" points="46.5,5 46.4,5.8 47.6,5.8 47.7,5.1 				"/>
				<polygon fill-rule="evenodd" clip-rule="evenodd" fill="#231F20" points="44.3,5 44.3,5.8 45.5,5.8 45.5,5 				"/>
				<rect x="42.1" y="5" fill-rule="evenodd" clip-rule="evenodd" fill="#231F20" width="1.2" height="0.8"/>
			</g>
		</g>
		<g>
			<g>
				<polygon fill-rule="evenodd" clip-rule="evenodd" fill="#231F20" points="53,5.4 52.9,6.1 54.1,6.2 54.2,5.5 				"/>
				<polygon fill-rule="evenodd" clip-rule="evenodd" fill="#231F20" points="50.8,5.2 50.8,6 52,6 52,5.3 				"/>
				<polygon fill-rule="evenodd" clip-rule="evenodd" fill="#231F20" points="48.6,5.1 48.6,5.9 49.8,5.9 49.9,5.2 				"/>
			</g>
		</g>
		<g>
			<g>
				<polygon fill-rule="evenodd" clip-rule="evenodd" fill="#231F20" points="59.5,6.1 59.4,6.8 60.6,7 60.7,6.3 				"/>
				<polygon fill-rule="evenodd" clip-rule="evenodd" fill="#231F20" points="57.3,5.8 57.2,6.5 58.4,6.7 58.5,5.9 				"/>
				<polygon fill-rule="evenodd" clip-rule="evenodd" fill="#231F20" points="55.2,5.5 55.1,6.3 56.3,6.4 56.4,5.7 				"/>
			</g>
		</g>
		<g>
			<g>
				<path fill-rule="evenodd" clip-rule="evenodd" fill="#231F20" d="M65.9,7.5l-0.2,0.7c0,0,0.3,0.1,0.6,0.2
					c0.3,0.1,0.6,0.2,0.6,0.2L67,7.9c0,0-0.3-0.1-0.6-0.2C66.2,7.6,65.9,7.5,65.9,7.5z"/>
				<path fill-rule="evenodd" clip-rule="evenodd" fill="#231F20" d="M63.8,6.9l-0.2,0.7c0,0,0.3,0.1,0.6,0.1
					c0.3,0.1,0.6,0.2,0.6,0.2L65,7.2c0,0-0.3-0.1-0.6-0.2C64.1,7,63.8,6.9,63.8,6.9z"/>
				<path fill-rule="evenodd" clip-rule="evenodd" fill="#231F20" d="M61.6,6.4l-0.1,0.7c0,0,0.3,0.1,0.6,0.1
					c0.3,0.1,0.6,0.1,0.6,0.1l0.2-0.7c0,0-0.3-0.1-0.6-0.1C61.9,6.5,61.6,6.4,61.6,6.4z"/>
			</g>
		</g>
		<g>
			<g>
				<polygon fill-rule="evenodd" clip-rule="evenodd" fill="#231F20" points="71.8,10.2 71.5,10.9 72.5,11.5 72.9,10.8 				"/>
				<polygon fill-rule="evenodd" clip-rule="evenodd" fill="#231F20" points="69.9,9.2 69.6,9.8 70.6,10.4 71,9.8 				"/>
				<path fill-rule="evenodd" clip-rule="evenodd" fill="#231F20" d="M68,8.2l-0.3,0.7c0,0,0.3,0.1,0.5,0.2c0.3,0.1,0.5,0.3,0.5,0.3
					l0.3-0.7c0,0-0.3-0.1-0.6-0.3C68.2,8.4,68,8.2,68,8.2z"/>
			</g>
		</g>
		<g>
			<g>
				
					<rect x="77.4" y="13.6" transform="matrix(0.5191 -0.8547 0.8547 0.5191 25.252 73.2988)" fill-rule="evenodd" clip-rule="evenodd" fill="#231F20" width="0.8" height="1.2"/>
				
					<rect x="75.5" y="12.5" transform="matrix(0.5166 -0.8562 0.8562 0.5166 25.4955 71.3228)" fill-rule="evenodd" clip-rule="evenodd" fill="#231F20" width="0.7" height="1.2"/>
				
					<rect x="73.7" y="11.4" transform="matrix(0.5117 -0.8592 0.8592 0.5117 25.8824 69.4722)" fill-rule="evenodd" clip-rule="evenodd" fill="#231F20" width="0.7" height="1.2"/>
			</g>
		</g>
		<g>
			<g>
				<path fill-rule="evenodd" clip-rule="evenodd" fill="#231F20" d="M83,17l-0.4,0.7c0,0,0.3,0.1,0.6,0.3c0.3,0.1,0.6,0.3,0.6,0.3
					l0.3-0.7c0,0-0.3-0.1-0.5-0.3C83.3,17.1,83,17,83,17z"/>
				<polygon fill-rule="evenodd" clip-rule="evenodd" fill="#231F20" points="81.1,15.9 80.7,16.5 81.8,17.1 82.2,16.5 				"/>
				
					<rect x="79.2" y="14.8" transform="matrix(0.53 -0.848 0.848 0.53 24.396 74.7387)" fill-rule="evenodd" clip-rule="evenodd" fill="#231F20" width="0.8" height="1.2"/>
			</g>
		</g>
		<g>
			<g>
				<polygon fill-rule="evenodd" clip-rule="evenodd" fill="#231F20" points="89.1,19 88.9,19.7 90.1,20 90.3,19.2 				"/>
				<path fill-rule="evenodd" clip-rule="evenodd" fill="#231F20" d="M87,18.5l-0.2,0.7c0,0,0.3,0.1,0.6,0.2
					c0.3,0.1,0.6,0.1,0.6,0.1l0.2-0.7c0,0-0.3-0.1-0.6-0.1C87.3,18.6,87,18.5,87,18.5z"/>
				<path fill-rule="evenodd" clip-rule="evenodd" fill="#231F20" d="M84.9,17.9l-0.3,0.7c0,0,0.3,0.1,0.6,0.2
					c0.3,0.1,0.6,0.2,0.6,0.2l0.2-0.7c0,0-0.3-0.1-0.6-0.2C85.2,18,84.9,17.9,84.9,17.9z"/>
			</g>
		</g>
		<g>
			<g>
				<polygon fill-rule="evenodd" clip-rule="evenodd" fill="#231F20" points="95.5,19.9 95.4,20.6 96.7,20.7 96.7,20 				"/>
				<polygon fill-rule="evenodd" clip-rule="evenodd" fill="#231F20" points="93.4,19.7 93.3,20.4 94.5,20.5 94.6,19.8 				"/>
				<polygon fill-rule="evenodd" clip-rule="evenodd" fill="#231F20" points="91.2,19.4 91.1,20.1 92.3,20.3 92.4,19.6 				"/>
			</g>
		</g>
		<g>
			<polygon points="102.5,20.5 94.9,23.2 96.8,20.2 95.2,17.1 			"/>
		</g>
	</g>
</g>
<path fill="none" stroke="#000000" stroke-width="0.5" stroke-miterlimit="10" d="M2.9,79.8"/>
<g>
	<g>
		<g>
			<g>
				<polygon fill-rule="evenodd" clip-rule="evenodd" fill="#231F20" points="159.7,23.9 159.5,24.6 160.8,24.9 160.9,24.1 				"/>
				<polygon fill-rule="evenodd" clip-rule="evenodd" fill="#231F20" points="157.4,23.4 157.3,24.2 158.5,24.4 158.7,23.6 				"/>
				<polygon fill-rule="evenodd" clip-rule="evenodd" fill="#231F20" points="155.1,23.1 155,23.9 156.3,24 156.4,23.3 				"/>
			</g>
		</g>
		<g>
			<g>
				<path fill-rule="evenodd" clip-rule="evenodd" fill="#231F20" d="M166.3,26.2l-0.3,0.7c0,0,0.3,0.1,0.6,0.3
					c0.3,0.1,0.5,0.3,0.5,0.3l0.4-0.6c0,0-0.3-0.2-0.6-0.3C166.6,26.3,166.3,26.2,166.3,26.2z"/>
				<path fill-rule="evenodd" clip-rule="evenodd" fill="#231F20" d="M164.2,25.2l-0.3,0.7c0,0,0.3,0.1,0.6,0.2
					c0.3,0.1,0.6,0.3,0.6,0.3l0.3-0.7c0,0-0.3-0.1-0.6-0.3C164.5,25.3,164.2,25.2,164.2,25.2z"/>
				<path fill-rule="evenodd" clip-rule="evenodd" fill="#231F20" d="M162,24.4l-0.2,0.7c0,0,0.3,0.1,0.6,0.2
					c0.3,0.1,0.6,0.2,0.6,0.2l0.2-0.7c0,0-0.3-0.1-0.6-0.2C162.3,24.5,162,24.4,162,24.4z"/>
			</g>
		</g>
		<g>
			<g>
				<path fill-rule="evenodd" clip-rule="evenodd" fill="#231F20" d="M171.8,30.5l-0.6,0.5c0,0,0.2,0.2,0.4,0.5
					c0.2,0.2,0.4,0.5,0.4,0.5l0.6-0.5c0,0-0.2-0.3-0.4-0.5C172,30.7,171.8,30.5,171.8,30.5z"/>
				<polygon fill-rule="evenodd" clip-rule="evenodd" fill="#231F20" points="170.2,28.8 169.7,29.4 170.6,30.2 171.1,29.7 				"/>
				<path fill-rule="evenodd" clip-rule="evenodd" fill="#231F20" d="M168.3,27.4l-0.4,0.6c0,0,0.3,0.2,0.5,0.4
					c0.3,0.2,0.5,0.4,0.5,0.4l0.5-0.6c0,0-0.3-0.2-0.5-0.4C168.6,27.6,168.3,27.4,168.3,27.4z"/>
			</g>
		</g>
		<g>
			<g>
				<polygon fill-rule="evenodd" clip-rule="evenodd" fill="#231F20" points="175.7,36.3 175.1,36.7 175.7,37.8 176.4,37.4 				"/>
				<polygon fill-rule="evenodd" clip-rule="evenodd" fill="#231F20" points="174.5,34.3 173.9,34.7 174.5,35.8 175.2,35.4 				"/>
				<path fill-rule="evenodd" clip-rule="evenodd" fill="#231F20" d="M173.3,32.4l-0.6,0.4c0,0,0.2,0.3,0.4,0.5
					c0.2,0.3,0.3,0.5,0.3,0.5l0.6-0.4c0,0-0.2-0.3-0.4-0.5C173.5,32.6,173.3,32.4,173.3,32.4z"/>
			</g>
		</g>
		<g>
			<g>
				<path fill-rule="evenodd" clip-rule="evenodd" fill="#231F20" d="M179.9,41.8l-0.5,0.6c0,0,1,0.8,1.1,0.8l0.4-0.6
					C180.9,42.6,179.9,41.8,179.9,41.8z"/>
				<path fill-rule="evenodd" clip-rule="evenodd" fill="#231F20" d="M178.3,40.1l-0.6,0.5c0,0,0.2,0.3,0.4,0.5
					c0.2,0.3,0.5,0.5,0.5,0.5l0.5-0.5c0,0-0.2-0.2-0.4-0.5C178.5,40.4,178.3,40.1,178.3,40.1z"/>
				<path fill-rule="evenodd" clip-rule="evenodd" fill="#231F20" d="M176.9,38.3l-0.6,0.4c0,0,0.2,0.3,0.4,0.5
					c0.2,0.3,0.4,0.5,0.4,0.5l0.6-0.4c0,0-0.2-0.3-0.4-0.5C177.1,38.6,176.9,38.3,176.9,38.3z"/>
			</g>
		</g>
		<g>
			<g>
				<path fill-rule="evenodd" clip-rule="evenodd" fill="#231F20" d="M186,44.7l-0.2,0.7c0,0,1.3,0.2,1.3,0.2l0.1-0.7
					C187.2,44.9,186,44.7,186,44.7z"/>
				<path fill-rule="evenodd" clip-rule="evenodd" fill="#231F20" d="M183.8,44l-0.3,0.7c0,0,1.3,0.4,1.3,0.4l0.2-0.7
					C185,44.4,183.8,44,183.8,44z"/>
				<path fill-rule="evenodd" clip-rule="evenodd" fill="#231F20" d="M181.7,43.1l-0.4,0.7c0,0,0.3,0.2,0.6,0.3
					c0.3,0.2,0.6,0.3,0.6,0.3l0.3-0.7c0,0-0.3-0.1-0.6-0.3C182,43.2,181.7,43.1,181.7,43.1z"/>
			</g>
		</g>
		<g>
			<polygon points="193.1,45.6 185.3,48.1 187.3,45.2 185.7,42 			"/>
		</g>
	</g>
</g>
<g>
	<g>
		<g>
			<g>
				
					<rect x="22" y="59.2" transform="matrix(-1.603181e-02 -0.9999 0.9999 -1.603181e-02 -37.0617 83.1429)" fill-rule="evenodd" clip-rule="evenodd" fill="#231F20" width="0.8" height="1.3"/>
				
					<rect x="19.7" y="59.2" transform="matrix(-1.320388e-02 -0.9999 0.9999 -1.320388e-02 -39.4648 80.7431)" fill-rule="evenodd" clip-rule="evenodd" fill="#231F20" width="0.8" height="1.3"/>
				<polygon fill-rule="evenodd" clip-rule="evenodd" fill="#231F20" points="17.2,59.5 17.2,60.3 18.5,60.2 18.5,59.5 				"/>
			</g>
		</g>
		<g>
			<g>
				<polygon fill-rule="evenodd" clip-rule="evenodd" fill="#231F20" points="28.6,59.3 28.6,60.1 29.8,60 29.8,59.3 				"/>
				<polygon fill-rule="evenodd" clip-rule="evenodd" fill="#231F20" points="26.3,59.4 26.3,60.1 27.6,60.1 27.6,59.3 				"/>
				
					<rect x="24.3" y="59.1" transform="matrix(-1.888024e-02 -0.9998 0.9998 -1.888024e-02 -34.6281 85.5591)" fill-rule="evenodd" clip-rule="evenodd" fill="#231F20" width="0.7" height="1.3"/>
			</g>
		</g>
		<g>
			<g>
				
					<rect x="35.6" y="58.8" transform="matrix(-3.175873e-02 -0.9995 0.9995 -3.175873e-02 -22.2875 97.3582)" fill-rule="evenodd" clip-rule="evenodd" fill="#231F20" width="0.7" height="1.3"/>
				
					<rect x="33.4" y="58.9" transform="matrix(-2.927652e-02 -0.9996 0.9996 -2.927652e-02 -24.7828 95.0129)" fill-rule="evenodd" clip-rule="evenodd" fill="#231F20" width="0.8" height="1.3"/>
				
					<rect x="31.1" y="59" transform="matrix(-2.681439e-02 -0.9996 0.9996 -2.681439e-02 -27.258 92.6751)" fill-rule="evenodd" clip-rule="evenodd" fill="#231F20" width="0.8" height="1.3"/>
			</g>
		</g>
		<g>
			<g>
				
					<rect x="42.5" y="58.6" transform="matrix(-3.851276e-02 -0.9993 0.9993 -3.851276e-02 -14.7045 104.3018)" fill-rule="evenodd" clip-rule="evenodd" fill="#231F20" width="0.8" height="1.3"/>
				
					<rect x="40.2" y="58.7" transform="matrix(-3.641794e-02 -0.9993 0.9993 -3.641794e-02 -17.24 102.0079)" fill-rule="evenodd" clip-rule="evenodd" fill="#231F20" width="0.7" height="1.3"/>
				
					<rect x="37.9" y="58.8" transform="matrix(-3.424015e-02 -0.9994 0.9994 -3.424015e-02 -19.7591 99.7131)" fill-rule="evenodd" clip-rule="evenodd" fill="#231F20" width="0.8" height="1.3"/>
			</g>
		</g>
		<g>
			<g>
				
					<rect x="49.3" y="58.3" transform="matrix(-4.481976e-02 -0.999 0.999 -4.481976e-02 -7.0212 111.1784)" fill-rule="evenodd" clip-rule="evenodd" fill="#231F20" width="0.8" height="1.3"/>
				
					<rect x="47" y="58.4" transform="matrix(-4.274501e-02 -0.9991 0.9991 -4.274501e-02 -9.5928 108.8975)" fill-rule="evenodd" clip-rule="evenodd" fill="#231F20" width="0.7" height="1.3"/>
				
					<rect x="44.7" y="58.5" transform="matrix(-4.064887e-02 -0.9992 0.9992 -4.064887e-02 -12.1399 106.6125)" fill-rule="evenodd" clip-rule="evenodd" fill="#231F20" width="0.8" height="1.3"/>
			</g>
		</g>
		<g>
			<g>
				
					<rect x="56.1" y="58" transform="matrix(-5.006953e-02 -0.9987 0.9987 -5.006953e-02 0.7384 117.9278)" fill-rule="evenodd" clip-rule="evenodd" fill="#231F20" width="0.7" height="1.3"/>
				
					<rect x="53.8" y="58.1" transform="matrix(-4.829880e-02 -0.9988 0.9988 -4.829880e-02 -1.8543 115.6805)" fill-rule="evenodd" clip-rule="evenodd" fill="#231F20" width="0.8" height="1.3"/>
				
					<rect x="51.5" y="58.2" transform="matrix(-4.655018e-02 -0.9989 0.9989 -4.655018e-02 -4.4294 113.4405)" fill-rule="evenodd" clip-rule="evenodd" fill="#231F20" width="0.7" height="1.3"/>
			</g>
		</g>
		<g>
			<g>
				
					<rect x="62.9" y="57.6" transform="matrix(-5.478944e-02 -0.9985 0.9985 -5.478944e-02 8.5624 124.6079)" fill-rule="evenodd" clip-rule="evenodd" fill="#231F20" width="0.7" height="1.3"/>
				
					<rect x="60.6" y="57.7" transform="matrix(-5.340566e-02 -0.9986 0.9986 -5.340566e-02 5.9557 122.4033)" fill-rule="evenodd" clip-rule="evenodd" fill="#231F20" width="0.8" height="1.3"/>
				
					<rect x="58.4" y="57.9" transform="matrix(-5.179856e-02 -0.9987 0.9987 -5.179856e-02 3.3543 120.187)" fill-rule="evenodd" clip-rule="evenodd" fill="#231F20" width="0.7" height="1.3"/>
			</g>
		</g>
		<g>
			<g>
				
					<rect x="69.7" y="57.2" transform="matrix(-5.895941e-02 -0.9983 0.9983 -5.895941e-02 16.4336 131.2239)" fill-rule="evenodd" clip-rule="evenodd" fill="#231F20" width="0.8" height="1.3"/>
				
					<rect x="67.4" y="57.4" transform="matrix(-5.755560e-02 -0.9983 0.9983 -5.755560e-02 13.8046 129.0227)" fill-rule="evenodd" clip-rule="evenodd" fill="#231F20" width="0.8" height="1.3"/>
				
					<rect x="65.2" y="57.5" transform="matrix(-5.617311e-02 -0.9984 0.9984 -5.617311e-02 11.1934 126.8268)" fill-rule="evenodd" clip-rule="evenodd" fill="#231F20" width="0.7" height="1.3"/>
			</g>
		</g>
		<g>
			<g>
				
					<rect x="76.5" y="56.8" transform="matrix(-6.184888e-02 -0.9981 0.9981 -6.184888e-02 24.3003 137.7323)" fill-rule="evenodd" clip-rule="evenodd" fill="#231F20" width="0.8" height="1.3"/>
				
					<rect x="74.2" y="57" transform="matrix(-6.184888e-02 -0.9981 0.9981 -6.184888e-02 21.7545 135.6202)" fill-rule="evenodd" clip-rule="evenodd" fill="#231F20" width="0.8" height="1.3"/>
				
					<rect x="72" y="57.1" transform="matrix(-6.184888e-02 -0.9981 0.9981 -6.184888e-02 19.2171 133.515)" fill-rule="evenodd" clip-rule="evenodd" fill="#231F20" width="0.8" height="1.3"/>
			</g>
		</g>
		<g>
			<g>
				
					<rect x="83.3" y="56.4" transform="matrix(-6.479862e-02 -0.9979 0.9979 -6.479862e-02 32.2077 144.2091)" fill-rule="evenodd" clip-rule="evenodd" fill="#231F20" width="0.8" height="1.3"/>
				
					<rect x="81" y="56.5" transform="matrix(-6.414767e-02 -0.9979 0.9979 -6.414767e-02 29.5914 142.0741)" fill-rule="evenodd" clip-rule="evenodd" fill="#231F20" width="0.8" height="1.3"/>
				
					<rect x="78.8" y="56.7" transform="matrix(-6.313061e-02 -0.998 0.998 -6.313061e-02 26.9619 139.9196)" fill-rule="evenodd" clip-rule="evenodd" fill="#231F20" width="0.8" height="1.3"/>
			</g>
		</g>
		<g>
			<g>
				
					<rect x="90.1" y="55.9" transform="matrix(-6.677154e-02 -0.9978 0.9978 -6.677154e-02 40.0858 150.6205)" fill-rule="evenodd" clip-rule="evenodd" fill="#231F20" width="0.8" height="1.3"/>
				
					<rect x="87.8" y="56.1" transform="matrix(-6.612068e-02 -0.9978 0.9978 -6.612068e-02 37.4606 148.4868)" fill-rule="evenodd" clip-rule="evenodd" fill="#231F20" width="0.8" height="1.3"/>
				
					<rect x="85.6" y="56.2" transform="matrix(-6.547108e-02 -0.9979 0.9979 -6.547108e-02 34.8469 146.3596)" fill-rule="evenodd" clip-rule="evenodd" fill="#231F20" width="0.7" height="1.3"/>
			</g>
		</g>
		<g>
			<g>
				
					<rect x="96.9" y="55.5" transform="matrix(-6.803396e-02 -0.9977 0.9977 -6.803396e-02 47.9345 156.9804)" fill-rule="evenodd" clip-rule="evenodd" fill="#231F20" width="0.7" height="1.3"/>
				
					<rect x="94.6" y="55.6" transform="matrix(-6.803396e-02 -0.9977 0.9977 -6.803396e-02 45.3618 154.8859)" fill-rule="evenodd" clip-rule="evenodd" fill="#231F20" width="0.7" height="1.3"/>
				
					<rect x="92.4" y="55.8" transform="matrix(-6.803396e-02 -0.9977 0.9977 -6.803396e-02 42.7975 152.7984)" fill-rule="evenodd" clip-rule="evenodd" fill="#231F20" width="0.7" height="1.3"/>
			</g>
		</g>
		<g>
			<g>
				
					<rect x="103.7" y="55" transform="matrix(-6.854167e-02 -0.9976 0.9976 -6.854167e-02 55.715 163.2922)" fill-rule="evenodd" clip-rule="evenodd" fill="#231F20" width="0.8" height="1.3"/>
				
					<rect x="101.4" y="55.2" transform="matrix(-6.848090e-02 -0.9977 0.9977 -6.848090e-02 53.1338 161.1961)" fill-rule="evenodd" clip-rule="evenodd" fill="#231F20" width="0.8" height="1.3"/>
				
					<rect x="99.2" y="55.3" transform="matrix(-6.817715e-02 -0.9977 0.9977 -6.817715e-02 50.537 159.0939)" fill-rule="evenodd" clip-rule="evenodd" fill="#231F20" width="0.7" height="1.3"/>
			</g>
		</g>
		<g>
			<g>
				
					<rect x="110.5" y="54.5" transform="matrix(-6.856332e-02 -0.9976 0.9976 -6.856332e-02 63.4526 169.5802)" fill-rule="evenodd" clip-rule="evenodd" fill="#231F20" width="0.7" height="1.3"/>
				
					<rect x="108.2" y="54.7" transform="matrix(-6.856189e-02 -0.9976 0.9976 -6.856189e-02 60.8774 167.4872)" fill-rule="evenodd" clip-rule="evenodd" fill="#231F20" width="0.8" height="1.3"/>
				
					<rect x="106" y="54.8" transform="matrix(-6.856189e-02 -0.9976 0.9976 -6.856189e-02 58.3108 165.4012)" fill-rule="evenodd" clip-rule="evenodd" fill="#231F20" width="0.8" height="1.3"/>
			</g>
		</g>
		<g>
			<g>
				
					<rect x="117.3" y="54.1" transform="matrix(-6.738326e-02 -0.9977 0.9977 -6.738326e-02 71.038 175.8183)" fill-rule="evenodd" clip-rule="evenodd" fill="#231F20" width="0.7" height="1.3"/>
				
					<rect x="115.1" y="54.2" transform="matrix(-6.783010e-02 -0.9977 0.9977 -6.783010e-02 68.5214 173.743)" fill-rule="evenodd" clip-rule="evenodd" fill="#231F20" width="0.8" height="1.3"/>
				
					<rect x="112.8" y="54.4" transform="matrix(-6.825814e-02 -0.9977 0.9977 -6.825814e-02 66.009 171.6739)" fill-rule="evenodd" clip-rule="evenodd" fill="#231F20" width="0.7" height="1.3"/>
			</g>
		</g>
		<g>
			<g>
				
					<rect x="124.1" y="53.6" transform="matrix(-6.599911e-02 -0.9978 0.9978 -6.599911e-02 78.5763 182.0556)" fill-rule="evenodd" clip-rule="evenodd" fill="#231F20" width="0.8" height="1.3"/>
				
					<rect x="121.9" y="53.8" transform="matrix(-6.648655e-02 -0.9978 0.9978 -6.648655e-02 76.0745 179.9773)" fill-rule="evenodd" clip-rule="evenodd" fill="#231F20" width="0.8" height="1.3"/>
				
					<rect x="119.6" y="53.9" transform="matrix(-6.693628e-02 -0.9978 0.9978 -6.693628e-02 73.5707 177.9086)" fill-rule="evenodd" clip-rule="evenodd" fill="#231F20" width="0.7" height="1.3"/>
			</g>
		</g>
		<g>
			<g>
				
					<rect x="130.9" y="53.2" transform="matrix(-6.449337e-02 -0.9979 0.9979 -6.449337e-02 86.0612 188.3051)" fill-rule="evenodd" clip-rule="evenodd" fill="#231F20" width="0.8" height="1.3"/>
				
					<rect x="128.7" y="53.3" transform="matrix(-6.445280e-02 -0.9979 0.9979 -6.445280e-02 83.4986 186.1986)" fill-rule="evenodd" clip-rule="evenodd" fill="#231F20" width="0.8" height="1.3"/>
				
					<rect x="126.4" y="53.5" transform="matrix(-6.445280e-02 -0.9979 0.9979 -6.445280e-02 80.9498 184.1008)" fill-rule="evenodd" clip-rule="evenodd" fill="#231F20" width="0.8" height="1.3"/>
			</g>
		</g>
		<g>
			<g>
				
					<rect x="137.7" y="52.8" transform="matrix(-6.054670e-02 -0.9982 0.9982 -6.054670e-02 93.169 194.4753)" fill-rule="evenodd" clip-rule="evenodd" fill="#231F20" width="0.8" height="1.3"/>
				
					<rect x="135.5" y="52.9" transform="matrix(-6.172728e-02 -0.9981 0.9981 -6.172728e-02 90.7948 192.4112)" fill-rule="evenodd" clip-rule="evenodd" fill="#231F20" width="0.7" height="1.3"/>
				
					<rect x="133.2" y="53" transform="matrix(-6.278488e-02 -0.998 0.998 -6.278488e-02 88.405 190.3513)" fill-rule="evenodd" clip-rule="evenodd" fill="#231F20" width="0.7" height="1.3"/>
			</g>
		</g>
		<g>
			<g>
				
					<rect x="144.5" y="52.4" transform="matrix(-5.704742e-02 -0.9984 0.9984 -5.704742e-02 100.2726 200.684)" fill-rule="evenodd" clip-rule="evenodd" fill="#231F20" width="0.8" height="1.3"/>
				
					<rect x="142.3" y="52.5" transform="matrix(-5.822705e-02 -0.9983 0.9983 -5.822705e-02 97.9173 198.6147)" fill-rule="evenodd" clip-rule="evenodd" fill="#231F20" width="0.8" height="1.3"/>
				
					<rect x="140" y="52.6" transform="matrix(-5.936722e-02 -0.9982 0.9982 -5.936722e-02 95.5561 196.5549)" fill-rule="evenodd" clip-rule="evenodd" fill="#231F20" width="0.7" height="1.3"/>
			</g>
		</g>
		<g>
			<g>
				
					<rect x="151.3" y="52" transform="matrix(-5.244987e-02 -0.9986 0.9986 -5.244987e-02 107.1228 206.8911)" fill-rule="evenodd" clip-rule="evenodd" fill="#231F20" width="0.7" height="1.3"/>
				
					<rect x="149.1" y="52.1" transform="matrix(-5.399608e-02 -0.9985 0.9985 -5.399608e-02 104.8516 204.8248)" fill-rule="evenodd" clip-rule="evenodd" fill="#231F20" width="0.7" height="1.3"/>
				
					<rect x="146.8" y="52.2" transform="matrix(-5.550158e-02 -0.9985 0.9985 -5.550158e-02 102.5758 202.764)" fill-rule="evenodd" clip-rule="evenodd" fill="#231F20" width="0.7" height="1.3"/>
			</g>
		</g>
		<g>
			<g>
				
					<rect x="158.2" y="51.7" transform="matrix(-4.736312e-02 -0.9989 0.9989 -4.736312e-02 113.8057 213.1109)" fill-rule="evenodd" clip-rule="evenodd" fill="#231F20" width="0.8" height="1.3"/>
				
					<rect x="155.9" y="51.8" transform="matrix(-4.927598e-02 -0.9988 0.9988 -4.927598e-02 111.6318 211.0398)" fill-rule="evenodd" clip-rule="evenodd" fill="#231F20" width="0.7" height="1.3"/>
				
					<rect x="153.6" y="51.9" transform="matrix(-5.090258e-02 -0.9987 0.9987 -5.090258e-02 109.4046 208.9728)" fill-rule="evenodd" clip-rule="evenodd" fill="#231F20" width="0.8" height="1.3"/>
			</g>
		</g>
		<g>
			<g>
				
					<rect x="165" y="51.3" transform="matrix(-4.162627e-02 -0.9991 0.9991 -4.162627e-02 120.285 219.335)" fill-rule="evenodd" clip-rule="evenodd" fill="#231F20" width="0.7" height="1.3"/>
				
					<rect x="162.7" y="51.4" transform="matrix(-4.353784e-02 -0.9991 0.9991 -4.353784e-02 118.1376 217.2618)" fill-rule="evenodd" clip-rule="evenodd" fill="#231F20" width="0.8" height="1.3"/>
				
					<rect x="160.4" y="51.6" transform="matrix(-4.545104e-02 -0.999 0.999 -4.545104e-02 115.9888 215.1974)" fill-rule="evenodd" clip-rule="evenodd" fill="#231F20" width="0.7" height="1.3"/>
			</g>
		</g>
		<g>
			<g>
				
					<rect x="171.8" y="51.1" transform="matrix(-3.495283e-02 -0.9994 0.9994 -3.495283e-02 126.4669 225.5828)" fill-rule="evenodd" clip-rule="evenodd" fill="#231F20" width="0.8" height="1.3"/>
				
					<rect x="169.5" y="51.2" transform="matrix(-3.723134e-02 -0.9993 0.9993 -3.723134e-02 124.43 223.5038)" fill-rule="evenodd" clip-rule="evenodd" fill="#231F20" width="0.8" height="1.3"/>
				
					<rect x="167.2" y="51.3" transform="matrix(-3.950978e-02 -0.9992 0.9992 -3.950978e-02 122.391 221.4318)" fill-rule="evenodd" clip-rule="evenodd" fill="#231F20" width="0.8" height="1.3"/>
			</g>
		</g>
		<g>
			<g>
				
					<rect x="178.6" y="50.9" transform="matrix(-2.779130e-02 -0.9996 0.9996 -2.779130e-02 132.4377 231.8443)" fill-rule="evenodd" clip-rule="evenodd" fill="#231F20" width="0.7" height="1.3"/>
				
					<rect x="176.3" y="50.9" transform="matrix(-3.035441e-02 -0.9995 0.9995 -3.035441e-02 130.5065 229.753)" fill-rule="evenodd" clip-rule="evenodd" fill="#231F20" width="0.8" height="1.3"/>
				
					<rect x="174.1" y="51" transform="matrix(-3.263399e-02 -0.9995 0.9995 -3.263399e-02 128.5038 227.6753)" fill-rule="evenodd" clip-rule="evenodd" fill="#231F20" width="0.7" height="1.3"/>
			</g>
		</g>
		<g>
			<g>
				<polygon fill-rule="evenodd" clip-rule="evenodd" fill="#231F20" points="185.1,51 185.2,51.7 186.4,51.7 186.4,51 				"/>
				
					<rect x="183.1" y="50.8" transform="matrix(-2.246076e-02 -0.9997 0.9997 -2.246076e-02 136.235 236.0269)" fill-rule="evenodd" clip-rule="evenodd" fill="#231F20" width="0.8" height="1.3"/>
				
					<rect x="180.9" y="50.8" transform="matrix(-2.510550e-02 -0.9997 0.9997 -2.510550e-02 134.3508 233.9465)" fill-rule="evenodd" clip-rule="evenodd" fill="#231F20" width="0.8" height="1.3"/>
			</g>
		</g>
		<g>
			<polygon points="192.2,51.1 184.8,54.4 186.5,51.3 184.7,48.3 			"/>
		</g>
	</g>
</g>
<g>
	<g>
		<g>
			<g>
				
					<rect x="52.7" y="34.7" transform="matrix(-1.660168e-02 -0.9999 0.9999 -1.660168e-02 18.6795 88.8584)" fill-rule="evenodd" clip-rule="evenodd" fill="#231F20" width="0.7" height="1.2"/>
				
					<rect x="50.6" y="34.7" transform="matrix(-7.914266e-03 -1 1 -7.914266e-03 16.0579 86.4792)" fill-rule="evenodd" clip-rule="evenodd" fill="#231F20" width="0.7" height="1.2"/>
				<rect x="48.2" y="34.9" fill-rule="evenodd" clip-rule="evenodd" fill="#231F20" width="1.2" height="0.8"/>
			</g>
		</g>
		<g>
			<g>
				<polygon fill-rule="evenodd" clip-rule="evenodd" fill="#231F20" points="58.8,34.7 58.8,35.4 60,35.4 59.9,34.6 				"/>
				<polygon fill-rule="evenodd" clip-rule="evenodd" fill="#231F20" points="56.7,34.8 56.7,35.5 57.9,35.5 57.8,34.7 				"/>
				
					<rect x="54.8" y="34.6" transform="matrix(-2.655008e-02 -0.9996 0.9996 -2.655008e-02 21.447 91.2682)" fill-rule="evenodd" clip-rule="evenodd" fill="#231F20" width="0.8" height="1.2"/>
			</g>
		</g>
		<g>
			<g>
				<polygon fill-rule="evenodd" clip-rule="evenodd" fill="#231F20" points="65.1,34.2 65.1,34.9 66.3,34.8 66.2,34 				"/>
				<polygon fill-rule="evenodd" clip-rule="evenodd" fill="#231F20" points="63,34.4 63,35.1 64.2,35 64.1,34.3 				"/>
				<polygon fill-rule="evenodd" clip-rule="evenodd" fill="#231F20" points="60.9,34.5 60.9,35.3 62.1,35.2 62,34.5 				"/>
			</g>
		</g>
		<g>
			<g>
				<path fill-rule="evenodd" clip-rule="evenodd" fill="#231F20" d="M71.3,33.1l0.2,0.7c0,0,0.3-0.1,0.6-0.2
					c0.3-0.1,0.6-0.2,0.6-0.2l-0.2-0.7c0,0-0.3,0.1-0.6,0.2C71.5,33.1,71.3,33.1,71.3,33.1z"/>
				<polygon fill-rule="evenodd" clip-rule="evenodd" fill="#231F20" points="69.2,33.6 69.4,34.3 70.5,34.1 70.4,33.4 				"/>
				<polygon fill-rule="evenodd" clip-rule="evenodd" fill="#231F20" points="67.2,33.9 67.3,34.7 68.4,34.5 68.3,33.7 				"/>
			</g>
		</g>
		<g>
			<g>
				
					<rect x="77.5" y="30.7" transform="matrix(-0.3483 -0.9374 0.9374 -0.3483 75.7475 115.2173)" fill-rule="evenodd" clip-rule="evenodd" fill="#231F20" width="0.7" height="1.2"/>
				
					<rect x="75.6" y="31.4" transform="matrix(-0.3391 -0.9407 0.9407 -0.3391 71.5869 114.3092)" fill-rule="evenodd" clip-rule="evenodd" fill="#231F20" width="0.8" height="1.2"/>
				<polygon fill-rule="evenodd" clip-rule="evenodd" fill="#231F20" points="73.3,32.5 73.5,33.3 74.6,32.9 74.4,32.2 				"/>
			</g>
		</g>
		<g>
			<g>
				<polygon fill-rule="evenodd" clip-rule="evenodd" fill="#231F20" points="83.2,28.9 83.4,29.6 84.5,29.2 84.3,28.5 				"/>
				
					<rect x="81.5" y="29.2" transform="matrix(-0.3595 -0.9332 0.9332 -0.3595 83.5188 116.8935)" fill-rule="evenodd" clip-rule="evenodd" fill="#231F20" width="0.8" height="1.2"/>
				
					<rect x="79.5" y="29.9" transform="matrix(-0.3506 -0.9365 0.9365 -0.3506 79.3378 116.0796)" fill-rule="evenodd" clip-rule="evenodd" fill="#231F20" width="0.8" height="1.2"/>
			</g>
		</g>
		<g>
			<g>
				<polygon fill-rule="evenodd" clip-rule="evenodd" fill="#231F20" points="89.3,27.3 89.4,28 90.6,27.8 90.5,27.1 				"/>
				<polygon fill-rule="evenodd" clip-rule="evenodd" fill="#231F20" points="87.2,27.6 87.4,28.4 88.5,28.2 88.4,27.4 				"/>
				<path fill-rule="evenodd" clip-rule="evenodd" fill="#231F20" d="M85.2,28.2l0.2,0.7c0,0,0.3-0.1,0.5-0.2
					c0.3-0.1,0.6-0.1,0.6-0.1l-0.2-0.7c0,0-0.3,0.1-0.6,0.2C85.5,28.1,85.2,28.2,85.2,28.2z"/>
			</g>
		</g>
		<g>
			<g>
				<polygon fill-rule="evenodd" clip-rule="evenodd" fill="#231F20" points="95.7,26.6 95.7,27.4 96.9,27.3 96.8,26.6 				"/>
				<polygon fill-rule="evenodd" clip-rule="evenodd" fill="#231F20" points="93.5,26.8 93.6,27.5 94.8,27.4 94.7,26.7 				"/>
				<polygon fill-rule="evenodd" clip-rule="evenodd" fill="#231F20" points="91.4,27 91.5,27.7 92.7,27.6 92.6,26.9 				"/>
			</g>
		</g>
		<g>
			<polygon points="102.6,26.7 95.2,30 96.9,26.9 95,23.9 			"/>
		</g>
	</g>
</g>
<g>
</g>
<g>
</g>
<g>
</g>
<g>
</g>
<g>
</g>
<g>
</g>
<g>
</g>
<g>
</g>
<g>
</g>
<g>
</g>
<g>
</g>
<g>
</g>
<g>
</g>
<g>
</g>
<g>
</g>
<g>
</g>
</svg>
