<?xml version="1.0" encoding="utf-8"?>
<!-- Generator: Adobe Illustrator 18.1.1, SVG Export Plug-In . SVG Version: 6.00 Build 0)  -->
<!DOCTYPE svg PUBLIC "-//W3C//DTD SVG 1.1//EN" "http://www.w3.org/Graphics/SVG/1.1/DTD/svg11.dtd">
<svg version="1.1" id="Layer_1" xmlns="http://www.w3.org/2000/svg" xmlns:xlink="http://www.w3.org/1999/xlink" x="0px" y="0px"
	 viewBox="0 0 374 94" enable-background="new 0 0 374 94" xml:space="preserve">
<g>
	<defs>
		<rect id="SVGID_1_" width="374" height="94"/>
	</defs>
	<clipPath id="SVGID_2_">
		<use xlink:href="#SVGID_1_"  overflow="visible"/>
	</clipPath>
	<path clip-path="url(#SVGID_2_)" fill-rule="evenodd" clip-rule="evenodd" d="M337.7,59.3v1.4c-0.6,0.6-1.2,0.9-2,0.9
		c-0.3,0-0.8-0.1-1.7-0.5c-0.9-0.3-1.5-0.5-1.9-0.5c-0.7,0-1.3,0.3-1.9,1v-1.4c0.6-0.6,1.2-0.9,2-0.9c0.4,0,1,0.2,2,0.5
		c0.8,0.3,1.4,0.5,1.6,0.5C336.5,60.2,337.1,59.9,337.7,59.3"/>
	<path clip-path="url(#SVGID_2_)" fill-rule="evenodd" clip-rule="evenodd" d="M343.1,66.2c-0.7,0-1.5-0.1-2.1-0.3
		c-0.7-0.1-1.3-0.4-2-0.7l0.4-1.8h0.1c0.5,0.5,1.1,0.9,1.8,1.2c0.7,0.3,1.4,0.4,2.1,0.4c1.1,0,1.9-0.2,2.5-0.7
		c0.6-0.5,0.9-1,0.9-1.7c0-0.4-0.1-0.7-0.3-0.9c-0.2-0.3-0.5-0.4-0.9-0.5c-0.3-0.1-0.7-0.2-1.2-0.3s-0.9-0.2-1.3-0.3
		c-0.8-0.2-1.4-0.5-1.8-0.9c-0.5-0.5-0.7-1-0.7-1.7c0-1.1,0.5-2,1.4-2.8c0.9-0.7,2.1-1.1,3.6-1.1c0.8,0,1.5,0.1,2.2,0.3
		c0.7,0.2,1.2,0.4,1.7,0.6l-0.3,1.7H349c-0.4-0.4-0.9-0.7-1.6-0.9c-0.7-0.3-1.4-0.4-2.1-0.4c-0.9,0-1.7,0.2-2.2,0.7
		c-0.6,0.4-0.8,1-0.8,1.6c0,0.4,0.1,0.7,0.3,0.9c0.2,0.3,0.5,0.5,1,0.6c0.3,0.1,0.8,0.2,1.3,0.3c0.5,0.1,1,0.2,1.4,0.3
		c0.7,0.2,1.3,0.5,1.6,0.9c0.4,0.4,0.6,0.9,0.6,1.5c0,0.5-0.1,1-0.4,1.5c-0.3,0.5-0.6,0.9-1,1.3c-0.5,0.4-1,0.7-1.7,0.9
		C344.8,66.1,344,66.2,343.1,66.2"/>
	<path clip-path="url(#SVGID_2_)" fill-rule="evenodd" clip-rule="evenodd" d="M76.9,12c0.5,0,1.1,0,1.6,0v0.7c-0.5,0-1.1,0-1.6,0
		V12"/>
	<path clip-path="url(#SVGID_2_)" fill-rule="evenodd" clip-rule="evenodd" d="M80.1,12c0.5,0,1,0,1.5,0v0.7c-0.5,0-1,0-1.5,0V12"/>
	<path clip-path="url(#SVGID_2_)" fill-rule="evenodd" clip-rule="evenodd" d="M83.1,12c0.5,0,1,0,1.4,0v0.7c-0.5,0-1,0-1.4,0V12"/>
	<path clip-path="url(#SVGID_2_)" fill-rule="evenodd" clip-rule="evenodd" d="M85.9,12.1c0.5,0,0.9,0,1.4,0v0.3l0,0.4
		c-0.4,0-0.9,0-1.3,0V12.1"/>
	<path clip-path="url(#SVGID_2_)" fill-rule="evenodd" clip-rule="evenodd" d="M88.6,12.2c0.4,0,0.8,0,1.3,0.1l0,0.3v0.4
		c-0.4,0-0.8,0-1.3-0.1l0-0.3V12.2"/>
	<path clip-path="url(#SVGID_2_)" fill-rule="evenodd" clip-rule="evenodd" d="M91,12.2c0.4,0,0.8,0,1.2,0.1v0.3l0,0.4
		c-0.4,0-0.8,0-1.2-0.1l0-0.3V12.2"/>
	<path clip-path="url(#SVGID_2_)" fill-rule="evenodd" clip-rule="evenodd" d="M93.9,12.4c0.5,0,1,0.1,1.6,0.1l0,0.3l0,0.4
		c-0.5,0-1-0.1-1.5-0.1v-0.4L93.9,12.4"/>
	<path clip-path="url(#SVGID_2_)" fill-rule="evenodd" clip-rule="evenodd" d="M96.9,12.6c0.5,0,1,0.1,1.4,0.1l0,0.3l0,0.4
		c-0.5,0-0.9-0.1-1.4-0.1l0-0.3V12.6"/>
	<path clip-path="url(#SVGID_2_)" fill-rule="evenodd" clip-rule="evenodd" d="M99.7,12.8c0.4,0,0.8,0.1,1.3,0.1l0,0.3l-0.1,0.4
		c-0.4-0.1-0.8-0.1-1.2-0.1l0-0.4L99.7,12.8"/>
	<path clip-path="url(#SVGID_2_)" fill-rule="evenodd" clip-rule="evenodd" d="M102.2,13c0.5,0.1,0.9,0.1,1.3,0.2l0,0.3l-0.1,0.4
		c-0.4-0.1-0.8-0.1-1.3-0.2l0-0.3L102.2,13"/>
	<path clip-path="url(#SVGID_2_)" fill-rule="evenodd" clip-rule="evenodd" d="M105.1,13.4c0.5,0.1,1,0.2,1.5,0.2l-0.1,0.4l-0.1,0.3
		c-0.5-0.1-0.9-0.1-1.4-0.2l0.1-0.3L105.1,13.4"/>
	<path clip-path="url(#SVGID_2_)" fill-rule="evenodd" clip-rule="evenodd" d="M107.9,13.9c0.4,0.1,0.8,0.2,1.2,0.3l-0.1,0.3
		l-0.1,0.3c-0.4-0.1-0.8-0.2-1.2-0.3l0.1-0.3L107.9,13.9"/>
	<path clip-path="url(#SVGID_2_)" fill-rule="evenodd" clip-rule="evenodd" d="M110.4,14.4c0.5,0.1,1,0.3,1.5,0.4l-0.2,0.7
		c-0.5-0.1-1-0.3-1.5-0.4L110.4,14.4"/>
	<path clip-path="url(#SVGID_2_)" fill-rule="evenodd" clip-rule="evenodd" d="M113.2,15.2c0.4,0.2,0.8,0.3,1.2,0.5l-0.1,0.3
		l-0.1,0.3c-0.3-0.2-0.7-0.3-1.1-0.5l0.1-0.3L113.2,15.2"/>
	<path clip-path="url(#SVGID_2_)" fill-rule="evenodd" clip-rule="evenodd" d="M115.7,16.3c0.4,0.2,0.8,0.5,1.2,0.7l-0.2,0.3
		l-0.2,0.3c-0.4-0.2-0.8-0.5-1.2-0.7L115.7,16.3"/>
	<path clip-path="url(#SVGID_2_)" fill-rule="evenodd" clip-rule="evenodd" d="M118.1,17.8c0.4,0.3,0.7,0.5,1.1,0.8l-0.2,0.3
		l-0.2,0.3c-0.4-0.3-0.8-0.5-1.2-0.8l0.2-0.3L118.1,17.8"/>
	<path clip-path="url(#SVGID_2_)" fill-rule="evenodd" clip-rule="evenodd" d="M120.3,19.3c0.3,0.2,0.7,0.4,1.1,0.7l-0.3,0.6
		c-0.4-0.2-0.8-0.5-1.2-0.7l0.2-0.3L120.3,19.3"/>
	<path clip-path="url(#SVGID_2_)" fill-rule="evenodd" clip-rule="evenodd" d="M122.7,20.6c0.4,0.2,0.8,0.3,1.2,0.5l-0.1,0.3
		l-0.1,0.3c-0.4-0.2-0.8-0.3-1.2-0.5l0.1-0.3L122.7,20.6"/>
	<path clip-path="url(#SVGID_2_)" fill-rule="evenodd" clip-rule="evenodd" d="M125.1,21.5c0.4,0.1,0.9,0.3,1.4,0.4l-0.2,0.7
		c-0.5-0.1-1-0.3-1.4-0.4L125.1,21.5"/>
	<path clip-path="url(#SVGID_2_)" fill-rule="evenodd" clip-rule="evenodd" d="M127.9,22.2c0.4,0.1,0.8,0.2,1.2,0.2l-0.1,0.4
		l-0.1,0.3c-0.4-0.1-0.8-0.2-1.2-0.2l0.1-0.4L127.9,22.2"/>
	<path clip-path="url(#SVGID_2_)" fill-rule="evenodd" clip-rule="evenodd" d="M130.4,22.7c0.4,0.1,0.9,0.1,1.4,0.2l0,0.3l-0.1,0.3
		c-0.5-0.1-1-0.1-1.4-0.2l0.1-0.3L130.4,22.7"/>
	<path clip-path="url(#SVGID_2_)" fill-rule="evenodd" clip-rule="evenodd" d="M133.2,23.1c0.5,0.1,1.1,0.1,1.6,0.2l0,0.4l0,0.3
		c-0.6-0.1-1.1-0.1-1.6-0.2l0.1-0.4L133.2,23.1"/>
	<path clip-path="url(#SVGID_2_)" fill-rule="evenodd" clip-rule="evenodd" d="M136,23.4c0.4,0,0.8,0.1,1.2,0.1l0,0.3l0,0.4
		c-0.4,0-0.8-0.1-1.2-0.1l0-0.3L136,23.4"/>
	<path clip-path="url(#SVGID_2_)" fill-rule="evenodd" clip-rule="evenodd" d="M138.5,23.6c0.5,0.1,0.9,0.1,1.4,0.1l0,0.3v0.4
		c-0.5,0-0.9-0.1-1.4-0.1l0-0.3L138.5,23.6"/>
	<path clip-path="url(#SVGID_2_)" fill-rule="evenodd" clip-rule="evenodd" d="M141.3,23.8c0.5,0,1,0,1.5,0.1l0,0.4v0.3
		c-0.5,0-1,0-1.5-0.1l0-0.4V23.8"/>
	<path clip-path="url(#SVGID_2_)" fill-rule="evenodd" clip-rule="evenodd" d="M144.4,23.9c0.5,0,0.9,0,1.4,0.1v0.7
		c-0.5,0-1-0.1-1.4-0.1l0-0.4V23.9"/>
	<polyline clip-path="url(#SVGID_2_)" fill-rule="evenodd" clip-rule="evenodd" points="144.3,28 143.5,29 156.9,24.5 143.7,19.5 
		144.4,20.5 145,21.6 145.3,22.9 145.5,24.2 145.3,25.6 144.9,26.9 144.3,28 	"/>
	<path clip-path="url(#SVGID_2_)" fill-rule="evenodd" clip-rule="evenodd" d="M89,43.8c0.5,0,1.1,0,1.6,0v0.7c-0.5,0-1.1,0-1.6,0
		V43.8"/>
	<path clip-path="url(#SVGID_2_)" fill-rule="evenodd" clip-rule="evenodd" d="M92.1,43.8c0.5,0,1,0,1.5,0v0.7c-0.5,0-1,0-1.5,0
		V43.8"/>
	<path clip-path="url(#SVGID_2_)" fill-rule="evenodd" clip-rule="evenodd" d="M95.1,43.8c0.5,0,0.9,0,1.4,0v0.4l0,0.3
		c-0.5,0-0.9,0-1.4,0V43.8"/>
	<path clip-path="url(#SVGID_2_)" fill-rule="evenodd" clip-rule="evenodd" d="M97.8,43.7c0.4,0,0.9,0,1.3,0v0.7c-0.4,0-0.8,0-1.3,0
		V43.7"/>
	<path clip-path="url(#SVGID_2_)" fill-rule="evenodd" clip-rule="evenodd" d="M100.4,43.6c0.4,0,0.8,0,1.2,0l0,0.3v0.4
		c-0.4,0-0.8,0-1.2,0l0-0.3V43.6"/>
	<path clip-path="url(#SVGID_2_)" fill-rule="evenodd" clip-rule="evenodd" d="M103,43.6c0.5,0,1.1-0.1,1.6-0.1v0.3l0,0.4
		c-0.5,0-1,0.1-1.6,0.1L103,43.6"/>
	<path clip-path="url(#SVGID_2_)" fill-rule="evenodd" clip-rule="evenodd" d="M106.1,43.4c0.5-0.1,0.9-0.1,1.4-0.1l0,0.4l0,0.3
		c-0.5,0-0.9,0.1-1.4,0.1v-0.3L106.1,43.4"/>
	<path clip-path="url(#SVGID_2_)" fill-rule="evenodd" clip-rule="evenodd" d="M108.8,43.2c0.4,0,0.8-0.1,1.2-0.1l0,0.4l0,0.3
		c-0.4,0.1-0.8,0.1-1.2,0.1l0-0.3L108.8,43.2"/>
	<path clip-path="url(#SVGID_2_)" fill-rule="evenodd" clip-rule="evenodd" d="M111.3,42.9c0.5-0.1,1.1-0.1,1.6-0.2l0.1,0.3l0,0.4
		c-0.5,0.1-1,0.1-1.6,0.2l-0.1-0.4L111.3,42.9"/>
	<path clip-path="url(#SVGID_2_)" fill-rule="evenodd" clip-rule="evenodd" d="M114.3,42.5c0.5-0.1,0.9-0.1,1.3-0.2l0.1,0.4l0.1,0.3
		c-0.4,0.1-0.9,0.1-1.3,0.2l-0.1-0.3L114.3,42.5"/>
	<path clip-path="url(#SVGID_2_)" fill-rule="evenodd" clip-rule="evenodd" d="M116.8,42.1c0.5-0.1,1-0.2,1.4-0.3l0.2,0.7
		c-0.5,0.1-0.9,0.2-1.4,0.3l-0.1-0.3L116.8,42.1"/>
	<path clip-path="url(#SVGID_2_)" fill-rule="evenodd" clip-rule="evenodd" d="M119.6,41.3c0.4-0.1,0.8-0.3,1.1-0.4l0.1,0.3l0.1,0.3
		c-0.4,0.1-0.7,0.3-1.2,0.4l-0.1-0.3L119.6,41.3"/>
	<path clip-path="url(#SVGID_2_)" fill-rule="evenodd" clip-rule="evenodd" d="M122,40.3c0.4-0.2,0.8-0.5,1.1-0.7l0.2,0.3l0.2,0.3
		c-0.3,0.2-0.7,0.5-1.2,0.7L122,40.3"/>
	<path clip-path="url(#SVGID_2_)" fill-rule="evenodd" clip-rule="evenodd" d="M124.2,38.9c0.4-0.3,0.7-0.5,1.1-0.8l0.2,0.3l0.2,0.3
		c-0.4,0.3-0.8,0.5-1.1,0.8L124.2,38.9"/>
	<path clip-path="url(#SVGID_2_)" fill-rule="evenodd" clip-rule="evenodd" d="M126.5,37.4c0.4-0.2,0.8-0.5,1.3-0.7l0.1,0.3l0.1,0.3
		c-0.5,0.2-0.9,0.4-1.3,0.6L126.5,37.4"/>
	<path clip-path="url(#SVGID_2_)" fill-rule="evenodd" clip-rule="evenodd" d="M129,36.3c0.4-0.1,0.9-0.3,1.4-0.4l0.2,0.7
		c-0.5,0.1-0.9,0.3-1.4,0.4L129,36.3"/>
	<path clip-path="url(#SVGID_2_)" fill-rule="evenodd" clip-rule="evenodd" d="M131.9,35.5c0.4-0.1,0.8-0.2,1.2-0.3l0.1,0.3l0.1,0.3
		c-0.4,0.1-0.8,0.2-1.2,0.3l-0.1-0.3L131.9,35.5"/>
	<path clip-path="url(#SVGID_2_)" fill-rule="evenodd" clip-rule="evenodd" d="M134.4,35.1c0.5-0.1,1-0.1,1.5-0.2l0.1,0.4l0,0.3
		c-0.5,0.1-1,0.1-1.5,0.2L134.4,35.1"/>
	<path clip-path="url(#SVGID_2_)" fill-rule="evenodd" clip-rule="evenodd" d="M137.4,34.7c0.4-0.1,0.8-0.1,1.2-0.1l0,0.3l0.1,0.3
		c-0.4,0.1-0.8,0.1-1.2,0.1l0-0.4L137.4,34.7"/>
	<path clip-path="url(#SVGID_2_)" fill-rule="evenodd" clip-rule="evenodd" d="M139.9,34.4c0.5-0.1,0.9-0.1,1.4-0.1l0,0.4l0,0.3
		c-0.5,0-0.9,0.1-1.4,0.1l0-0.4L139.9,34.4"/>
	<path clip-path="url(#SVGID_2_)" fill-rule="evenodd" clip-rule="evenodd" d="M142.7,34.2c0.5,0,1-0.1,1.5-0.1l0,0.3v0.4
		c-0.5,0-1,0.1-1.5,0.1v-0.4L142.7,34.2"/>
	<path clip-path="url(#SVGID_2_)" fill-rule="evenodd" clip-rule="evenodd" d="M145.9,34.1C145.9,34.1,145.9,34.1,145.9,34.1
		l0.1,0.4v0.3c0,0-0.1,0-0.1,0v-0.3L145.9,34.1"/>
	<polyline clip-path="url(#SVGID_2_)" fill-rule="evenodd" clip-rule="evenodd" points="144.4,38.3 143.7,39.3 156.9,34.2 
		143.5,29.8 144.2,30.7 144.8,31.9 145.2,33.1 145.4,34.4 145.3,35.8 145,37.1 144.4,38.3 	"/>
	<path clip-path="url(#SVGID_2_)" fill-rule="evenodd" clip-rule="evenodd" d="M243.6,28.6c0.5,0,1.1,0,1.6,0v0.7
		c-0.5,0-1.1,0-1.6,0V28.6"/>
	<path clip-path="url(#SVGID_2_)" fill-rule="evenodd" clip-rule="evenodd" d="M246.7,28.6c0.5,0,1,0,1.5,0l0,0.3v0.4
		c-0.5,0-1,0-1.5,0l0-0.4V28.6"/>
	<path clip-path="url(#SVGID_2_)" fill-rule="evenodd" clip-rule="evenodd" d="M249.7,28.7c0.5,0,0.9,0,1.4,0.1v0.4l0,0.3
		c-0.5,0-0.9,0-1.4-0.1l0-0.4V28.7"/>
	<path clip-path="url(#SVGID_2_)" fill-rule="evenodd" clip-rule="evenodd" d="M252.4,28.8c0.5,0,0.9,0.1,1.3,0.1l0,0.3l0,0.4
		c-0.4-0.1-0.9-0.1-1.3-0.1l0-0.3L252.4,28.8"/>
	<path clip-path="url(#SVGID_2_)" fill-rule="evenodd" clip-rule="evenodd" d="M255,29c0.4,0,0.8,0.1,1.2,0.1l0,0.3l-0.1,0.4
		c-0.4-0.1-0.8-0.1-1.2-0.1l0-0.4L255,29"/>
	<path clip-path="url(#SVGID_2_)" fill-rule="evenodd" clip-rule="evenodd" d="M257.7,29.3c0.5,0.1,1,0.1,1.6,0.2l-0.1,0.4l-0.1,0.3
		c-0.5-0.1-1-0.1-1.5-0.2l0.1-0.3L257.7,29.3"/>
	<path clip-path="url(#SVGID_2_)" fill-rule="evenodd" clip-rule="evenodd" d="M260.7,29.8c0.5,0.1,0.9,0.2,1.4,0.3l-0.1,0.3
		l-0.1,0.3c-0.5-0.1-0.9-0.2-1.4-0.3l0.1-0.4L260.7,29.8"/>
	<path clip-path="url(#SVGID_2_)" fill-rule="evenodd" clip-rule="evenodd" d="M263.4,30.4c0.4,0.1,0.8,0.2,1.2,0.3l-0.1,0.3
		l-0.1,0.3c-0.4-0.1-0.8-0.2-1.2-0.3L263.4,30.4"/>
	<path clip-path="url(#SVGID_2_)" fill-rule="evenodd" clip-rule="evenodd" d="M265.8,31c0.5,0.2,1,0.3,1.5,0.5l-0.1,0.3l-0.1,0.3
		c-0.5-0.2-0.9-0.3-1.4-0.5l0.1-0.3L265.8,31"/>
	<path clip-path="url(#SVGID_2_)" fill-rule="evenodd" clip-rule="evenodd" d="M268.7,32.1c0.5,0.2,0.8,0.4,1.2,0.6l-0.1,0.3
		l-0.2,0.3c-0.4-0.2-0.8-0.4-1.2-0.6l0.1-0.3L268.7,32.1"/>
	<path clip-path="url(#SVGID_2_)" fill-rule="evenodd" clip-rule="evenodd" d="M271.1,33.3c0.4,0.2,0.8,0.5,1.2,0.7l-0.2,0.3
		l-0.2,0.3c-0.4-0.3-0.7-0.5-1.1-0.7l0.2-0.3L271.1,33.3"/>
	<path clip-path="url(#SVGID_2_)" fill-rule="evenodd" clip-rule="evenodd" d="M273.4,35c0.4,0.3,0.7,0.6,1,0.9l-0.3,0.3l-0.2,0.3
		c-0.3-0.3-0.7-0.6-1-0.9l0.2-0.3L273.4,35"/>
	<path clip-path="url(#SVGID_2_)" fill-rule="evenodd" clip-rule="evenodd" d="M275.4,36.8c0.3,0.4,0.6,0.8,0.9,1.1l-0.3,0.2
		l-0.3,0.2c-0.3-0.4-0.6-0.7-0.9-1.1l0.3-0.2L275.4,36.8"/>
	<path clip-path="url(#SVGID_2_)" fill-rule="evenodd" clip-rule="evenodd" d="M277.1,39.1c0.3,0.4,0.5,0.8,0.7,1.2l-0.3,0.2
		l-0.3,0.2c-0.2-0.4-0.5-0.8-0.7-1.2l0.3-0.2L277.1,39.1"/>
	<path clip-path="url(#SVGID_2_)" fill-rule="evenodd" clip-rule="evenodd" d="M278.5,41.6c0.2,0.4,0.4,0.8,0.7,1.2l-0.6,0.3
		c-0.2-0.4-0.4-0.8-0.7-1.2L278.5,41.6"/>
	<path clip-path="url(#SVGID_2_)" fill-rule="evenodd" clip-rule="evenodd" d="M279.8,44c0.2,0.4,0.4,0.8,0.7,1.2l-0.6,0.3
		c-0.2-0.4-0.5-0.8-0.7-1.2L279.8,44"/>
	<path clip-path="url(#SVGID_2_)" fill-rule="evenodd" clip-rule="evenodd" d="M281.2,46.4c0.3,0.4,0.5,0.7,0.8,1.1l-0.6,0.5
		c-0.3-0.4-0.6-0.8-0.8-1.2l0.3-0.2L281.2,46.4"/>
	<path clip-path="url(#SVGID_2_)" fill-rule="evenodd" clip-rule="evenodd" d="M282.8,48.5c0.3,0.3,0.6,0.6,0.9,0.9l-0.2,0.3
		l-0.2,0.3c-0.4-0.3-0.7-0.7-1-1l0.3-0.3L282.8,48.5"/>
	<path clip-path="url(#SVGID_2_)" fill-rule="evenodd" clip-rule="evenodd" d="M284.9,50.3c0.3,0.3,0.7,0.5,1.1,0.8l-0.2,0.3
		l-0.2,0.3c-0.4-0.3-0.8-0.5-1.2-0.8l0.2-0.3L284.9,50.3"/>
	<path clip-path="url(#SVGID_2_)" fill-rule="evenodd" clip-rule="evenodd" d="M287.1,51.7c0.4,0.2,0.8,0.4,1.2,0.6l-0.1,0.3L288,53
		c-0.4-0.2-0.8-0.4-1.2-0.6L287.1,51.7"/>
	<path clip-path="url(#SVGID_2_)" fill-rule="evenodd" clip-rule="evenodd" d="M289.6,52.9c0.5,0.2,1,0.3,1.5,0.5l-0.2,0.7
		c-0.5-0.2-1-0.3-1.5-0.5l0.1-0.3L289.6,52.9"/>
	<path clip-path="url(#SVGID_2_)" fill-rule="evenodd" clip-rule="evenodd" d="M292.2,53.7c0.4,0.1,0.8,0.2,1.2,0.3l-0.1,0.3
		l-0.1,0.4c-0.4-0.1-0.8-0.2-1.2-0.3l0.1-0.3L292.2,53.7"/>
	<path clip-path="url(#SVGID_2_)" fill-rule="evenodd" clip-rule="evenodd" d="M294.7,54.3c0.5,0.1,0.9,0.2,1.4,0.3l-0.1,0.3
		l-0.1,0.3c-0.5-0.1-0.9-0.2-1.4-0.3l0.1-0.3L294.7,54.3"/>
	<path clip-path="url(#SVGID_2_)" fill-rule="evenodd" clip-rule="evenodd" d="M297.6,54.8c0.5,0.1,1,0.1,1.6,0.2l-0.1,0.3l0,0.4
		c-0.5-0.1-1.1-0.1-1.6-0.2L297.6,54.8"/>
	<polyline clip-path="url(#SVGID_2_)" fill-rule="evenodd" clip-rule="evenodd" points="297.9,58.9 297.1,59.9 310.7,56 297.7,50.4 
		298.3,51.4 298.8,52.6 299.1,53.8 299.2,55.2 299,56.5 298.5,57.8 297.9,58.9 	"/>
	<path clip-path="url(#SVGID_2_)" fill-rule="evenodd" clip-rule="evenodd" d="M47.6,75c0.5,0,1.1,0,1.6,0v0.7c-0.5,0-1.1,0-1.6,0
		V75"/>
	<path clip-path="url(#SVGID_2_)" fill-rule="evenodd" clip-rule="evenodd" d="M50.9,75c0.5,0,1.1,0,1.6,0v0.7c-0.5,0-1.1,0-1.6,0
		V75"/>
	<path clip-path="url(#SVGID_2_)" fill-rule="evenodd" clip-rule="evenodd" d="M54.1,75c0.5,0,1.1,0,1.6,0v0.7c-0.5,0-1,0-1.6,0V75"
		/>
	<path clip-path="url(#SVGID_2_)" fill-rule="evenodd" clip-rule="evenodd" d="M57.2,75c0.5,0,1,0,1.5,0v0.7c-0.5,0-1,0-1.5,0V75"/>
	<path clip-path="url(#SVGID_2_)" fill-rule="evenodd" clip-rule="evenodd" d="M60.3,75c0.5,0,1,0,1.5,0v0.7c-0.5,0-1,0-1.5,0V75"/>
	<path clip-path="url(#SVGID_2_)" fill-rule="evenodd" clip-rule="evenodd" d="M63.4,75c0.5,0,1,0,1.5,0v0.7c-0.5,0-1,0-1.5,0V75"/>
	<path clip-path="url(#SVGID_2_)" fill-rule="evenodd" clip-rule="evenodd" d="M66.3,75c0.5,0,1,0,1.4,0v0.7c-0.5,0-1,0-1.4,0V75"/>
	<path clip-path="url(#SVGID_2_)" fill-rule="evenodd" clip-rule="evenodd" d="M69.2,75c0.5,0,1,0,1.4,0v0.7c-0.5,0-0.9,0-1.4,0V75"
		/>
	<path clip-path="url(#SVGID_2_)" fill-rule="evenodd" clip-rule="evenodd" d="M72.1,75c0.5,0,0.9,0,1.4,0l0,0.4v0.3
		c-0.5,0-1,0-1.4,0V75"/>
	<path clip-path="url(#SVGID_2_)" fill-rule="evenodd" clip-rule="evenodd" d="M74.9,74.9c0.5,0,0.9,0,1.4,0v0.7c-0.5,0-0.9,0-1.4,0
		V74.9"/>
	<path clip-path="url(#SVGID_2_)" fill-rule="evenodd" clip-rule="evenodd" d="M77.7,74.9c0.5,0,0.9,0,1.4,0v0.7c-0.5,0-0.9,0-1.4,0
		V74.9"/>
	<path clip-path="url(#SVGID_2_)" fill-rule="evenodd" clip-rule="evenodd" d="M80.3,74.9c0.5,0,0.9,0,1.3,0v0.7c-0.4,0-0.9,0-1.3,0
		V74.9"/>
	<path clip-path="url(#SVGID_2_)" fill-rule="evenodd" clip-rule="evenodd" d="M83,74.9c0.4,0,0.8,0,1.3,0v0.7c-0.4,0-0.9,0-1.3,0
		V74.9"/>
	<path clip-path="url(#SVGID_2_)" fill-rule="evenodd" clip-rule="evenodd" d="M85.6,74.9c0.4,0,0.8,0,1.3,0l0,0.3v0.4
		c-0.4,0-0.8,0-1.3,0l0-0.3V74.9"/>
	<path clip-path="url(#SVGID_2_)" fill-rule="evenodd" clip-rule="evenodd" d="M88.1,74.9c0.4,0,0.8,0,1.2,0v0.4l0,0.3
		c-0.4,0-0.8,0-1.3,0V74.9"/>
	<path clip-path="url(#SVGID_2_)" fill-rule="evenodd" clip-rule="evenodd" d="M90.6,74.8c0.4,0,0.8,0,1.2,0v0.4l0,0.3
		c-0.4,0-0.8,0-1.2,0V74.8"/>
	<path clip-path="url(#SVGID_2_)" fill-rule="evenodd" clip-rule="evenodd" d="M93.1,74.8c0.4,0,0.8,0,1.2,0v0.7c-0.4,0-0.8,0-1.2,0
		V74.8"/>
	<path clip-path="url(#SVGID_2_)" fill-rule="evenodd" clip-rule="evenodd" d="M95.5,74.8c0.4,0,0.8,0,1.2,0v0.4l0,0.3
		c-0.4,0-0.8,0-1.2,0V74.8"/>
	<path clip-path="url(#SVGID_2_)" fill-rule="evenodd" clip-rule="evenodd" d="M97.8,74.7c0.6,0,1.1,0,1.7,0l0,0.4v0.3
		c-0.6,0-1.1,0-1.7,0v-0.4L97.8,74.7"/>
	<path clip-path="url(#SVGID_2_)" fill-rule="evenodd" clip-rule="evenodd" d="M101.1,74.7c0.6,0,1.1,0,1.6,0v0.7
		c-0.5,0-1.1,0-1.6,0v-0.3L101.1,74.7"/>
	<path clip-path="url(#SVGID_2_)" fill-rule="evenodd" clip-rule="evenodd" d="M104.4,74.7c0.5,0,1,0,1.6,0l0,0.3v0.4
		c-0.5,0-1,0-1.6,0V74.7"/>
	<path clip-path="url(#SVGID_2_)" fill-rule="evenodd" clip-rule="evenodd" d="M107.5,74.6c0.5,0,1,0,1.5,0v0.7c-0.5,0-1,0-1.5,0
		l0-0.4V74.6"/>
	<path clip-path="url(#SVGID_2_)" fill-rule="evenodd" clip-rule="evenodd" d="M110.5,74.5c0.5,0,1,0,1.5,0v0.7c-0.5,0-1,0-1.5,0
		V74.5"/>
	<path clip-path="url(#SVGID_2_)" fill-rule="evenodd" clip-rule="evenodd" d="M113.4,74.5c0.5,0,1,0,1.4,0v0.7c-0.5,0-0.9,0-1.4,0
		l0-0.3V74.5"/>
	<path clip-path="url(#SVGID_2_)" fill-rule="evenodd" clip-rule="evenodd" d="M116.2,74.4c0.5,0,0.9,0,1.4,0v0.3l0,0.4
		c-0.5,0-0.9,0-1.4,0v-0.3L116.2,74.4"/>
	<path clip-path="url(#SVGID_2_)" fill-rule="evenodd" clip-rule="evenodd" d="M119,74.4c0.5,0,0.9,0,1.3,0l0,0.3v0.4
		c-0.5,0-0.9,0-1.3,0l0-0.4V74.4"/>
	<path clip-path="url(#SVGID_2_)" fill-rule="evenodd" clip-rule="evenodd" d="M121.6,74.3c0.4,0,0.9,0,1.3-0.1V75
		c-0.4,0-0.8,0-1.3,0.1l0-0.4V74.3"/>
	<path clip-path="url(#SVGID_2_)" fill-rule="evenodd" clip-rule="evenodd" d="M124.2,74.2c0.4,0,0.8,0,1.2,0v0.4l0,0.3
		c-0.4,0-0.8,0-1.3,0V74.2"/>
	<path clip-path="url(#SVGID_2_)" fill-rule="evenodd" clip-rule="evenodd" d="M126.7,74.2c0.4,0,0.8,0,1.2,0l0,0.3v0.4
		c-0.4,0-0.8,0-1.2,0V74.2"/>
	<path clip-path="url(#SVGID_2_)" fill-rule="evenodd" clip-rule="evenodd" d="M129.1,74.1c0.4,0,0.8,0,1.2,0v0.4l0,0.3
		c-0.4,0-0.8,0-1.2,0v-0.3L129.1,74.1"/>
	<path clip-path="url(#SVGID_2_)" fill-rule="evenodd" clip-rule="evenodd" d="M131.4,74c0.4,0,0.9,0,1.3-0.1v0.4l0,0.3
		c-0.4,0-0.9,0-1.3,0.1V74"/>
	<path clip-path="url(#SVGID_2_)" fill-rule="evenodd" clip-rule="evenodd" d="M134.4,73.9c0.6,0,1.1,0,1.6-0.1l0,0.3v0.4
		c-0.5,0-1.1,0-1.6,0.1v-0.3L134.4,73.9"/>
	<path clip-path="url(#SVGID_2_)" fill-rule="evenodd" clip-rule="evenodd" d="M137.7,73.8c0.5,0,1-0.1,1.6-0.1v0.3l0,0.4
		c-0.5,0-1,0-1.6,0.1l0-0.4V73.8"/>
	<path clip-path="url(#SVGID_2_)" fill-rule="evenodd" clip-rule="evenodd" d="M140.7,73.7c0.5,0,1,0,1.5-0.1V74l0,0.3
		c-0.5,0-1,0.1-1.5,0.1l0-0.3V73.7"/>
	<path clip-path="url(#SVGID_2_)" fill-rule="evenodd" clip-rule="evenodd" d="M143.6,73.6c0.5,0,0.9-0.1,1.4-0.1v0.4l0,0.3
		c-0.5,0-0.9,0.1-1.4,0.1l0-0.4V73.6"/>
	<path clip-path="url(#SVGID_2_)" fill-rule="evenodd" clip-rule="evenodd" d="M146.4,73.4c0.4,0,0.9-0.1,1.3-0.1l0,0.3l0,0.4
		c-0.5,0-0.9,0-1.3,0.1l0-0.4V73.4"/>
	<path clip-path="url(#SVGID_2_)" fill-rule="evenodd" clip-rule="evenodd" d="M149,73.3c0.4,0,0.8-0.1,1.2-0.1v0.3l0,0.3
		c-0.4,0-0.8,0.1-1.2,0.1l0-0.3V73.3"/>
	<path clip-path="url(#SVGID_2_)" fill-rule="evenodd" clip-rule="evenodd" d="M151.5,73.1c0.4,0,0.8-0.1,1.2-0.1l0,0.4l0,0.3
		c-0.4,0-0.8,0.1-1.2,0.1l0-0.4V73.1"/>
	<path clip-path="url(#SVGID_2_)" fill-rule="evenodd" clip-rule="evenodd" d="M153.8,73c0.4,0,0.8-0.1,1.2-0.1l0,0.3l0,0.4
		c-0.4,0-0.8,0.1-1.2,0.1l0-0.4L153.8,73"/>
	<path clip-path="url(#SVGID_2_)" fill-rule="evenodd" clip-rule="evenodd" d="M156.6,72.8c0.5-0.1,1.1-0.1,1.6-0.1l0.1,0.7
		c-0.5,0.1-1,0.1-1.6,0.1l0-0.4L156.6,72.8"/>
	<path clip-path="url(#SVGID_2_)" fill-rule="evenodd" clip-rule="evenodd" d="M159.8,72.5c0.5,0,1-0.1,1.5-0.1l0,0.3l0,0.4
		c-0.5,0-1,0.1-1.5,0.1l0-0.3L159.8,72.5"/>
	<path clip-path="url(#SVGID_2_)" fill-rule="evenodd" clip-rule="evenodd" d="M162.6,72.3c0.5,0,0.9-0.1,1.4-0.1l0.1,0.3l0,0.4
		c-0.5,0-0.9,0.1-1.4,0.1l0-0.3L162.6,72.3"/>
	<path clip-path="url(#SVGID_2_)" fill-rule="evenodd" clip-rule="evenodd" d="M165.3,72c0.4,0,0.8-0.1,1.2-0.1l0.1,0.3l0,0.4
		c-0.4,0-0.8,0.1-1.2,0.1l0-0.3L165.3,72"/>
	<path clip-path="url(#SVGID_2_)" fill-rule="evenodd" clip-rule="evenodd" d="M167.7,71.8c0.4-0.1,0.8-0.1,1.2-0.1l0,0.4l0.1,0.3
		c-0.4,0.1-0.8,0.1-1.2,0.1l-0.1-0.4L167.7,71.8"/>
	<path clip-path="url(#SVGID_2_)" fill-rule="evenodd" clip-rule="evenodd" d="M170.3,71.5c0.5-0.1,1-0.1,1.5-0.2l0,0.3l0.1,0.3
		c-0.5,0.1-1,0.1-1.5,0.2l-0.1-0.3L170.3,71.5"/>
	<path clip-path="url(#SVGID_2_)" fill-rule="evenodd" clip-rule="evenodd" d="M173.2,71.1c0.5-0.1,0.9-0.1,1.4-0.2l0,0.3l0.1,0.4
		c-0.5,0.1-0.9,0.1-1.4,0.2l-0.1-0.3L173.2,71.1"/>
	<path clip-path="url(#SVGID_2_)" fill-rule="evenodd" clip-rule="evenodd" d="M175.9,70.7c0.5-0.1,0.9-0.1,1.3-0.2l0.1,0.3l0.1,0.4
		c-0.4,0.1-0.9,0.1-1.3,0.2L176,71L175.9,70.7"/>
	<path clip-path="url(#SVGID_2_)" fill-rule="evenodd" clip-rule="evenodd" d="M178.5,70.3c0.4-0.1,0.8-0.1,1.3-0.2l0.1,0.7
		c-0.4,0.1-0.8,0.1-1.3,0.2l-0.1-0.4L178.5,70.3"/>
	<path clip-path="url(#SVGID_2_)" fill-rule="evenodd" clip-rule="evenodd" d="M181.1,69.9c0.5-0.1,0.9-0.1,1.3-0.2l0.1,0.3l0.1,0.4
		c-0.5,0.1-0.9,0.1-1.3,0.2l-0.1-0.3L181.1,69.9"/>
	<path clip-path="url(#SVGID_2_)" fill-rule="evenodd" clip-rule="evenodd" d="M183.8,69.4c0.5-0.1,0.9-0.1,1.4-0.2l0.1,0.3l0.1,0.4
		c-0.5,0.1-0.9,0.1-1.4,0.2l-0.1-0.3L183.8,69.4"/>
	<path clip-path="url(#SVGID_2_)" fill-rule="evenodd" clip-rule="evenodd" d="M186.6,69.1c0.5-0.1,0.9-0.1,1.4-0.2l0.1,0.4l0.1,0.3
		c-0.5,0.1-1,0.1-1.4,0.2l-0.1-0.3L186.6,69.1"/>
	<path clip-path="url(#SVGID_2_)" fill-rule="evenodd" clip-rule="evenodd" d="M189.5,68.6c0.4,0,0.8-0.1,1.2-0.1l0.1,0.3l0.1,0.4
		c-0.4,0.1-0.8,0.1-1.2,0.1l0-0.3L189.5,68.6"/>
	<path clip-path="url(#SVGID_2_)" fill-rule="evenodd" clip-rule="evenodd" d="M191.8,68.3c0.4-0.1,0.8-0.1,1.3-0.2l0,0.4l0.1,0.3
		c-0.4,0.1-0.8,0.1-1.3,0.1l0-0.3L191.8,68.3"/>
	<path clip-path="url(#SVGID_2_)" fill-rule="evenodd" clip-rule="evenodd" d="M194.4,68c0.5-0.1,0.9-0.1,1.4-0.1l0.1,0.3l0,0.4
		c-0.5,0-0.9,0.1-1.4,0.1l-0.1-0.4L194.4,68"/>
	<path clip-path="url(#SVGID_2_)" fill-rule="evenodd" clip-rule="evenodd" d="M197.2,67.7c0.5-0.1,1-0.1,1.5-0.1l0,0.3l0,0.4
		c-0.5,0-1,0.1-1.5,0.1l0-0.4L197.2,67.7"/>
	<path clip-path="url(#SVGID_2_)" fill-rule="evenodd" clip-rule="evenodd" d="M200.3,67.5c0.5-0.1,1.1-0.1,1.6-0.1l0.1,0.3l0,0.4
		c-0.6,0-1.1,0.1-1.6,0.1l0-0.4L200.3,67.5"/>
	<path clip-path="url(#SVGID_2_)" fill-rule="evenodd" clip-rule="evenodd" d="M203.2,67.2c0.4,0,0.8-0.1,1.2-0.1l0,0.3l0,0.4
		c-0.4,0-0.8,0.1-1.2,0.1l0-0.3L203.2,67.2"/>
	<path clip-path="url(#SVGID_2_)" fill-rule="evenodd" clip-rule="evenodd" d="M205.5,67c0.4,0,0.8-0.1,1.2-0.1l0,0.3l0,0.4
		c-0.4,0-0.8,0.1-1.2,0.1l0-0.4L205.5,67"/>
	<path clip-path="url(#SVGID_2_)" fill-rule="evenodd" clip-rule="evenodd" d="M208,66.9c0.4,0,0.9-0.1,1.3-0.1l0,0.3l0,0.4
		c-0.5,0-0.9,0.1-1.3,0.1l0-0.4L208,66.9"/>
	<path clip-path="url(#SVGID_2_)" fill-rule="evenodd" clip-rule="evenodd" d="M210.6,66.7c0.5,0,0.9-0.1,1.4-0.1V67l0,0.3
		c-0.5,0-0.9,0.1-1.4,0.1l0-0.3V66.7"/>
	<path clip-path="url(#SVGID_2_)" fill-rule="evenodd" clip-rule="evenodd" d="M213.4,66.5c0.5,0,1,0,1.5-0.1l0,0.3v0.4
		c-0.5,0-1,0.1-1.5,0.1v-0.3L213.4,66.5"/>
	<path clip-path="url(#SVGID_2_)" fill-rule="evenodd" clip-rule="evenodd" d="M216.4,66.4c0.5,0,1-0.1,1.6-0.1l0,0.4V67
		c-0.5,0-1,0.1-1.6,0.1l0-0.3V66.4"/>
	<path clip-path="url(#SVGID_2_)" fill-rule="evenodd" clip-rule="evenodd" d="M219.6,66.2c0.5,0,1.1-0.1,1.7-0.1l0,0.4v0.3
		c-0.6,0-1.1,0.1-1.7,0.1v-0.4L219.6,66.2"/>
	<path clip-path="url(#SVGID_2_)" fill-rule="evenodd" clip-rule="evenodd" d="M222.8,66.1c0.4,0,0.8,0,1.1-0.1l0,0.4v0.3
		c-0.4,0-0.8,0.1-1.1,0.1l0-0.3V66.1"/>
	<path clip-path="url(#SVGID_2_)" fill-rule="evenodd" clip-rule="evenodd" d="M225.1,66c0.4,0,0.8,0,1.2-0.1l0,0.4v0.3
		c-0.4,0-0.8,0-1.2,0.1v-0.4L225.1,66"/>
	<path clip-path="url(#SVGID_2_)" fill-rule="evenodd" clip-rule="evenodd" d="M227.5,65.9c0.4,0,0.8,0,1.2-0.1l0,0.4v0.3
		c-0.4,0-0.8,0-1.2,0.1l0-0.4V65.9"/>
	<path clip-path="url(#SVGID_2_)" fill-rule="evenodd" clip-rule="evenodd" d="M230,65.8c0.4,0,0.8,0,1.3-0.1l0,0.4v0.3
		c-0.4,0-0.8,0-1.3,0.1l0-0.4V65.8"/>
	<path clip-path="url(#SVGID_2_)" fill-rule="evenodd" clip-rule="evenodd" d="M232.5,65.8c0.5,0,0.9,0,1.3,0l0,0.3v0.4
		c-0.5,0-0.9,0-1.3,0v-0.3L232.5,65.8"/>
	<path clip-path="url(#SVGID_2_)" fill-rule="evenodd" clip-rule="evenodd" d="M235.2,65.7c0.5,0,0.9,0,1.4,0V66l0,0.4
		c-0.5,0-0.9,0-1.4,0V66L235.2,65.7"/>
	<path clip-path="url(#SVGID_2_)" fill-rule="evenodd" clip-rule="evenodd" d="M238,65.6c0.5,0,0.9,0,1.4-0.1l0,0.4v0.3
		c-0.5,0-1,0-1.4,0.1V65.6"/>
	<path clip-path="url(#SVGID_2_)" fill-rule="evenodd" clip-rule="evenodd" d="M240.9,65.5c0.5,0,1,0,1.5,0v0.7c-0.5,0-1,0-1.5,0
		l0-0.3V65.5"/>
	<path clip-path="url(#SVGID_2_)" fill-rule="evenodd" clip-rule="evenodd" d="M243.9,65.5c0.5,0,1,0,1.6,0v0.7c-0.5,0-1,0-1.5,0
		l0-0.4V65.5"/>
	<path clip-path="url(#SVGID_2_)" fill-rule="evenodd" clip-rule="evenodd" d="M247,65.4c0.5,0,1.1,0,1.6,0v0.7c-0.5,0-1.1,0-1.6,0
		l0-0.3V65.4"/>
	<path clip-path="url(#SVGID_2_)" fill-rule="evenodd" clip-rule="evenodd" d="M250.3,65.3c0.6,0,1.1,0,1.7,0V66c-0.5,0-1.1,0-1.6,0
		v-0.3L250.3,65.3"/>
	<path clip-path="url(#SVGID_2_)" fill-rule="evenodd" clip-rule="evenodd" d="M253.5,65.3c0.4,0,0.8,0,1.2,0V66c-0.4,0-0.8,0-1.2,0
		V65.3"/>
	<path clip-path="url(#SVGID_2_)" fill-rule="evenodd" clip-rule="evenodd" d="M255.8,65.3c0.4,0,0.8,0,1.2,0v0.7
		c-0.4,0-0.8,0-1.2,0V65.3"/>
	<path clip-path="url(#SVGID_2_)" fill-rule="evenodd" clip-rule="evenodd" d="M258.2,65.2c0.4,0,0.8,0,1.2,0v0.7
		c-0.4,0-0.8,0-1.2,0V65.2"/>
	<path clip-path="url(#SVGID_2_)" fill-rule="evenodd" clip-rule="evenodd" d="M260.6,65.2c0.4,0,0.8,0,1.2,0v0.3l0,0.4
		c-0.4,0-0.8,0-1.2,0l0-0.4V65.2"/>
	<path clip-path="url(#SVGID_2_)" fill-rule="evenodd" clip-rule="evenodd" d="M263.2,65.1c0.4,0,0.8,0,1.3,0v0.7
		c-0.4,0-0.9,0-1.3,0V65.1"/>
	<path clip-path="url(#SVGID_2_)" fill-rule="evenodd" clip-rule="evenodd" d="M265.7,65.1c0.5,0,0.9,0,1.3,0v0.7
		c-0.5,0-0.9,0-1.3,0v-0.3L265.7,65.1"/>
	<path clip-path="url(#SVGID_2_)" fill-rule="evenodd" clip-rule="evenodd" d="M268.4,65.1c0.5,0,0.9,0,1.3,0v0.3l0,0.4
		c-0.5,0-0.9,0-1.4,0V65.1"/>
	<path clip-path="url(#SVGID_2_)" fill-rule="evenodd" clip-rule="evenodd" d="M271,65.1c0.5,0,0.9,0,1.4,0v0.3l0,0.4
		c-0.5,0-0.9,0-1.4,0V65.1"/>
	<path clip-path="url(#SVGID_2_)" fill-rule="evenodd" clip-rule="evenodd" d="M273.8,65.1c0.5,0,0.9,0,1.4,0l0,0.4v0.3
		c-0.5,0-0.9,0-1.4,0V65.1"/>
	<path clip-path="url(#SVGID_2_)" fill-rule="evenodd" clip-rule="evenodd" d="M276.6,65c0.5,0,1,0,1.4,0v0.7c-0.5,0-1,0-1.4,0
		l0-0.4V65"/>
	<path clip-path="url(#SVGID_2_)" fill-rule="evenodd" clip-rule="evenodd" d="M279.5,65c0.5,0,1,0,1.4,0l0,0.3v0.4
		c-0.5,0-1,0-1.5,0V65"/>
	<path clip-path="url(#SVGID_2_)" fill-rule="evenodd" clip-rule="evenodd" d="M282.4,65c0.5,0,1,0,1.5,0v0.7c-0.5,0-1,0-1.5,0V65"
		/>
	<path clip-path="url(#SVGID_2_)" fill-rule="evenodd" clip-rule="evenodd" d="M285.4,65c0.5,0,1,0,1.5,0v0.7c-0.5,0-1,0-1.5,0V65"
		/>
	<path clip-path="url(#SVGID_2_)" fill-rule="evenodd" clip-rule="evenodd" d="M288.5,64.9c0.5,0,1,0,1.6,0v0.7c-0.5,0-1,0-1.6,0
		V64.9"/>
	<path clip-path="url(#SVGID_2_)" fill-rule="evenodd" clip-rule="evenodd" d="M291.6,64.9c0.5,0,1,0,1.6,0v0.7c-0.5,0-1.1,0-1.6,0
		V64.9"/>
	<path clip-path="url(#SVGID_2_)" fill-rule="evenodd" clip-rule="evenodd" d="M294.8,64.9c0.5,0,1.1,0,1.6,0v0.7
		c-0.5,0-1.1,0-1.6,0V64.9"/>
	<path clip-path="url(#SVGID_2_)" fill-rule="evenodd" clip-rule="evenodd" d="M298.1,64.9c0.2,0,0.3,0,0.5,0v0.7
		c-0.1,0-0.3,0-0.5,0V64.9"/>
	<polyline clip-path="url(#SVGID_2_)" fill-rule="evenodd" clip-rule="evenodd" points="298.1,69.1 297.3,70 310.7,65.3 297.3,60.5 
		298,61.5 298.6,62.6 299,63.9 299.2,65.2 299.1,66.6 298.7,67.9 298.1,69.1 	"/>
	<path clip-path="url(#SVGID_2_)" fill-rule="evenodd" clip-rule="evenodd" d="M21.7,20.8c-1.5,0-2.6-0.4-3.5-1.2
		c-0.9-0.8-1.3-1.8-1.3-3.3c0-1.1,0.2-2.1,0.5-3c0.3-0.9,0.8-1.8,1.4-2.4c0.6-0.7,1.4-1.2,2.2-1.6C22,8.9,23,8.7,24,8.7
		c0.7,0,1.3,0.1,1.9,0.3c0.6,0.1,1.2,0.4,1.9,0.8l-0.3,1.8h-0.1c-0.2-0.2-0.3-0.3-0.5-0.5c-0.2-0.1-0.5-0.3-0.8-0.5
		c-0.3-0.1-0.7-0.3-1-0.4c-0.4-0.1-0.8-0.2-1.3-0.2c-0.7,0-1.4,0.1-2,0.5c-0.6,0.3-1.2,0.8-1.6,1.3c-0.4,0.5-0.8,1.2-1,2
		c-0.3,0.8-0.4,1.6-0.4,2.5c0,1.1,0.3,1.9,0.8,2.5c0.6,0.6,1.4,0.9,2.4,0.9c0.5,0,1-0.1,1.4-0.2c0.5-0.1,0.9-0.3,1.2-0.5
		c0.3-0.2,0.7-0.3,0.9-0.5c0.3-0.2,0.5-0.3,0.7-0.5h0.1l-0.4,1.8c-0.5,0.3-1.2,0.5-1.9,0.7C23.3,20.7,22.5,20.8,21.7,20.8"/>
	<path clip-path="url(#SVGID_2_)" fill-rule="evenodd" clip-rule="evenodd" d="M32.4,12.5v-1.3h5.5c0.9,0,1.8,0.3,2.5,1
		c0.8,0.7,1.2,1.6,1.2,2.7c0,1.1-0.4,2-1.2,2.7c-0.7,0.7-1.6,1-2.5,1h-5.4v-1.3h5.5c0.6,0,1.1-0.2,1.6-0.7c0.5-0.5,0.7-1,0.7-1.7
		c0-0.7-0.3-1.3-0.7-1.7c-0.5-0.5-1-0.7-1.6-0.7H32.4"/>
	<path clip-path="url(#SVGID_2_)" fill-rule="evenodd" clip-rule="evenodd" d="M57,13.5c0-0.6-0.1-1.1-0.3-1.6
		c-0.2-0.5-0.5-0.8-0.9-1.1c-0.4-0.3-0.8-0.5-1.3-0.6c-0.5-0.1-1-0.1-1.8-0.1h-1.2l-2.2,9.2h1.6c0.7,0,1.4-0.1,2-0.2
		c0.6-0.1,1.2-0.3,1.7-0.6c0.8-0.5,1.5-1.2,1.9-2.1C56.8,15.5,57,14.6,57,13.5 M58.7,13.4c0,1.3-0.3,2.5-1,3.6
		c-0.7,1.1-1.5,2-2.7,2.6c-0.7,0.4-1.4,0.6-2.1,0.7c-0.7,0.1-1.5,0.2-2.5,0.2h-3.1L50.1,9h2.7c0.8,0,1.6,0.1,2.3,0.2
		c0.7,0.1,1.3,0.4,1.9,0.8c0.5,0.4,1,0.8,1.2,1.4C58.5,11.9,58.7,12.6,58.7,13.4z"/>
	<path clip-path="url(#SVGID_2_)" fill-rule="evenodd" clip-rule="evenodd" d="M26.2,45.6c0-0.6-0.1-1.1-0.3-1.6
		c-0.2-0.5-0.5-0.8-0.9-1.1c-0.4-0.3-0.9-0.5-1.3-0.6c-0.5-0.1-1-0.1-1.8-0.1h-1.2l-2.2,9.2H20c0.7,0,1.4-0.1,2-0.2
		c0.6-0.1,1.2-0.3,1.7-0.6c0.8-0.5,1.5-1.2,1.9-2.1C26,47.6,26.2,46.6,26.2,45.6 M27.8,45.4c0,1.3-0.3,2.5-1,3.6
		c-0.7,1.1-1.5,2-2.7,2.6c-0.7,0.4-1.4,0.6-2.1,0.7c-0.7,0.1-1.5,0.2-2.5,0.2h-3.1L19.3,41H22c0.8,0,1.6,0.1,2.3,0.2
		c0.7,0.1,1.3,0.4,1.9,0.8c0.5,0.4,1,0.8,1.2,1.4C27.7,44,27.8,44.6,27.8,45.4z"/>
	<path clip-path="url(#SVGID_2_)" fill-rule="evenodd" clip-rule="evenodd" d="M33.5,44.5v-1.3H39c0.9,0,1.8,0.3,2.5,1
		c0.8,0.7,1.2,1.6,1.2,2.7s-0.4,2-1.2,2.7c-0.7,0.7-1.6,1-2.5,1h-5.4v-1.3H39c0.6,0,1.1-0.2,1.6-0.7s0.7-1,0.7-1.7
		c0-0.7-0.3-1.3-0.7-1.7c-0.5-0.5-1-0.7-1.6-0.7H33.5"/>
	<path clip-path="url(#SVGID_2_)" fill-rule="evenodd" clip-rule="evenodd" d="M56.3,45.9v1.4c-0.6,0.6-1.2,0.9-2,0.9
		c-0.3,0-0.8-0.1-1.7-0.5c-0.9-0.3-1.5-0.5-1.9-0.5c-0.7,0-1.3,0.3-1.9,1v-1.4c0.6-0.6,1.2-0.9,2-0.9c0.4,0,1,0.2,2,0.5
		c0.8,0.3,1.4,0.5,1.6,0.5C55.1,46.8,55.7,46.5,56.3,45.9"/>
	<path clip-path="url(#SVGID_2_)" fill-rule="evenodd" clip-rule="evenodd" d="M61.8,52.9c-0.7,0-1.5-0.1-2.1-0.3
		c-0.7-0.1-1.3-0.4-2-0.7l0.4-1.8h0.1c0.5,0.5,1.1,0.9,1.8,1.2c0.7,0.3,1.4,0.4,2.1,0.4c1.1,0,1.9-0.2,2.5-0.7
		c0.6-0.5,0.9-1,0.9-1.7c0-0.4-0.1-0.7-0.3-0.9c-0.2-0.3-0.5-0.4-0.9-0.5c-0.3-0.1-0.7-0.2-1.2-0.3c-0.5-0.1-0.9-0.2-1.3-0.3
		c-0.8-0.2-1.4-0.5-1.8-0.9c-0.5-0.5-0.7-1-0.7-1.7c0-1.1,0.5-2,1.4-2.8c0.9-0.7,2.1-1.1,3.6-1.1c0.8,0,1.5,0.1,2.2,0.3
		c0.7,0.2,1.2,0.4,1.7,0.6l-0.3,1.7h-0.1c-0.4-0.4-0.9-0.7-1.6-0.9C65.4,42.1,64.7,42,64,42c-0.9,0-1.7,0.2-2.2,0.7
		c-0.6,0.4-0.8,1-0.8,1.6c0,0.4,0.1,0.7,0.3,0.9c0.2,0.3,0.5,0.5,1,0.6c0.3,0.1,0.8,0.2,1.3,0.3c0.5,0.1,1,0.2,1.4,0.3
		c0.7,0.2,1.3,0.5,1.6,0.9c0.4,0.4,0.6,0.9,0.6,1.5c0,0.5-0.1,1-0.4,1.5c-0.3,0.5-0.6,0.9-1,1.3c-0.5,0.4-1,0.7-1.7,0.9
		C63.4,52.7,62.6,52.9,61.8,52.9"/>
	<path clip-path="url(#SVGID_2_)" fill-rule="evenodd" clip-rule="evenodd" d="M21.7,83c-1.5,0-2.6-0.4-3.5-1.2
		C17.4,81,17,80,17,78.5c0-1.1,0.2-2.1,0.5-3c0.3-0.9,0.8-1.8,1.4-2.4c0.6-0.7,1.4-1.2,2.2-1.6c0.9-0.4,1.9-0.6,2.9-0.6
		c0.7,0,1.3,0.1,1.9,0.3c0.6,0.1,1.2,0.4,1.9,0.8l-0.3,1.8h-0.1c-0.2-0.2-0.3-0.3-0.5-0.5c-0.2-0.1-0.5-0.3-0.8-0.5
		c-0.3-0.1-0.7-0.3-1-0.4c-0.4-0.1-0.8-0.2-1.3-0.2c-0.7,0-1.4,0.1-2,0.5c-0.6,0.3-1.2,0.8-1.6,1.3c-0.4,0.5-0.8,1.2-1,2
		c-0.3,0.8-0.4,1.6-0.4,2.5c0,1.1,0.3,1.9,0.8,2.5c0.6,0.6,1.4,0.9,2.4,0.9c0.5,0,1-0.1,1.4-0.2c0.5-0.1,0.9-0.3,1.2-0.5
		c0.3-0.2,0.7-0.3,0.9-0.5c0.3-0.2,0.5-0.3,0.7-0.5h0.1l-0.4,1.8c-0.5,0.3-1.2,0.5-1.9,0.7C23.3,82.8,22.5,83,21.7,83"/>
	<path clip-path="url(#SVGID_2_)" fill-rule="evenodd" clip-rule="evenodd" d="M177.9,34c-1.5,0-2.6-0.4-3.5-1.2
		c-0.8-0.8-1.3-1.8-1.3-3.3c0-1.1,0.2-2.1,0.5-3c0.3-0.9,0.8-1.8,1.4-2.4c0.6-0.7,1.4-1.2,2.2-1.6c0.9-0.4,1.9-0.6,2.9-0.6
		c0.7,0,1.3,0.1,1.9,0.3c0.6,0.1,1.2,0.4,1.9,0.8l-0.3,1.8h-0.1c-0.2-0.2-0.3-0.3-0.5-0.5c-0.2-0.1-0.5-0.3-0.8-0.5
		c-0.3-0.1-0.7-0.3-1-0.4c-0.4-0.1-0.8-0.2-1.3-0.2c-0.7,0-1.4,0.1-2,0.5c-0.6,0.3-1.2,0.8-1.6,1.3c-0.4,0.5-0.8,1.2-1,2
		c-0.3,0.8-0.4,1.6-0.4,2.5c0,1.1,0.3,1.9,0.8,2.5c0.6,0.6,1.4,0.9,2.4,0.9c0.5,0,1-0.1,1.4-0.2c0.5-0.1,0.8-0.3,1.2-0.5
		c0.3-0.2,0.7-0.3,0.9-0.5c0.3-0.2,0.5-0.3,0.7-0.5h0.1l-0.4,1.8c-0.5,0.3-1.2,0.5-1.9,0.7C179.5,33.8,178.7,34,177.9,34"/>
	<path clip-path="url(#SVGID_2_)" fill-rule="evenodd" clip-rule="evenodd" d="M188.7,25.6v-1.3h5.5c0.9,0,1.8,0.3,2.5,1
		c0.8,0.7,1.2,1.6,1.2,2.7c0,1.1-0.4,2-1.2,2.7c-0.7,0.7-1.6,1-2.5,1h-5.4v-1.3h5.5c0.6,0,1.1-0.2,1.6-0.7c0.5-0.5,0.7-1,0.7-1.7
		c0-0.7-0.3-1.3-0.7-1.7c-0.5-0.5-1-0.7-1.6-0.7H188.7"/>
	<path clip-path="url(#SVGID_2_)" fill-rule="evenodd" clip-rule="evenodd" d="M211.4,27v1.4c-0.6,0.6-1.2,0.9-2,0.9
		c-0.3,0-0.8-0.1-1.7-0.5c-0.9-0.3-1.5-0.5-1.9-0.5c-0.7,0-1.3,0.3-1.9,1v-1.4c0.6-0.6,1.2-0.9,2-0.9c0.4,0,1,0.2,2,0.5
		c0.8,0.3,1.4,0.5,1.6,0.5C210.3,28,210.9,27.6,211.4,27"/>
	<path clip-path="url(#SVGID_2_)" fill-rule="evenodd" clip-rule="evenodd" d="M216.9,34c-0.7,0-1.5-0.1-2.1-0.3
		c-0.7-0.1-1.3-0.4-2-0.7l0.4-1.8h0.1c0.5,0.5,1.1,0.9,1.8,1.2c0.7,0.3,1.4,0.4,2.1,0.4c1.1,0,1.9-0.2,2.5-0.7
		c0.6-0.5,0.9-1,0.9-1.7c0-0.4-0.1-0.7-0.3-0.9c-0.2-0.3-0.5-0.4-0.9-0.5c-0.3-0.1-0.7-0.2-1.2-0.3s-0.9-0.2-1.3-0.3
		c-0.8-0.2-1.4-0.5-1.8-0.9c-0.5-0.5-0.7-1-0.7-1.7c0-1.1,0.5-2,1.4-2.8c0.9-0.7,2.1-1.1,3.6-1.1c0.8,0,1.5,0.1,2.2,0.3
		s1.2,0.4,1.7,0.6l-0.3,1.7h-0.1c-0.4-0.4-0.9-0.7-1.6-0.9c-0.7-0.3-1.4-0.4-2.1-0.4c-0.9,0-1.7,0.2-2.2,0.7c-0.6,0.4-0.8,1-0.8,1.6
		c0,0.4,0.1,0.7,0.3,0.9c0.2,0.3,0.5,0.5,1,0.6c0.3,0.1,0.8,0.2,1.3,0.3c0.5,0.1,1,0.2,1.4,0.3c0.7,0.2,1.3,0.5,1.6,0.9
		c0.4,0.4,0.6,0.9,0.6,1.5c0,0.5-0.1,1-0.4,1.5c-0.3,0.5-0.6,0.9-1,1.3c-0.5,0.4-1,0.7-1.7,0.9C218.5,33.8,217.8,34,216.9,34"/>
</g>
</svg>
