<?xml version="1.0" encoding="UTF-8" standalone="no"?>
<!-- Created with Inkscape (http://www.inkscape.org/) -->

<svg
   width="360"
   height="360"
   viewBox="0 0 95.249998 95.250003"
   version="1.1"
   id="svg5"
   inkscape:version="1.1 (c4e8f9e, 2021-05-24)"
   sodipodi:docname="dao.svg"
   xmlns:inkscape="http://www.inkscape.org/namespaces/inkscape"
   xmlns:sodipodi="http://sodipodi.sourceforge.net/DTD/sodipodi-0.dtd"
   xmlns="http://www.w3.org/2000/svg"
   xmlns:svg="http://www.w3.org/2000/svg">
  <sodipodi:namedview
     id="namedview7"
     pagecolor="#ffffff"
     bordercolor="#111111"
     borderopacity="1"
     inkscape:pageshadow="0"
     inkscape:pageopacity="0"
     inkscape:pagecheckerboard="1"
     inkscape:document-units="mm"
     showgrid="false"
     units="px"
     inkscape:zoom="0.69130191"
     inkscape:cx="130.91241"
     inkscape:cy="344.27794"
     inkscape:window-width="1312"
     inkscape:window-height="956"
     inkscape:window-x="309"
     inkscape:window-y="25"
     inkscape:window-maximized="0"
     inkscape:current-layer="layer1" />
  <defs
     id="defs2" />
  <g
     inkscape:label="Layer 1"
     inkscape:groupmode="layer"
     id="layer1">
    <g
       aria-label="é“"
       id="text2582"
       style="font-size:70.9083px;line-height:1.25;font-family:'Kaiti SC';-inkscape-font-specification:'Kaiti SC';stroke-width:0.264583">
      <path
         d="m 27.076134,66.529684 q -0.346232,-3.912421 -1.592667,-7.201624 -1.904276,-4.951117 -1.904276,-5.470465 0,-2.077391 1.869653,-6.890015 l 0.657841,-1.800407 -0.96945,0.519348 q -2.389,1.419551 -6.647653,1.419551 -2.146638,0 -2.146638,-0.86558 0,-0.346231 3.116087,-1.211811 2.319754,-0.657841 5.539711,-2.735233 1.073319,-0.692464 1.73116,-0.692464 0.657841,0 2.839102,1.523421 2.181261,1.488797 2.181261,1.938899 0,0.380855 -1.073319,1.246435 -0.969449,0.830957 -1.696536,2.285131 l -1.142566,2.354377 q -1.004072,2.042768 -1.004072,2.735232 0,0.761711 1.454174,5.782074 1.142565,3.947044 1.142565,6.232175 0,0.207739 -0.06925,1.004072 2.112015,0.484725 8.794291,2.562117 11.841133,3.704682 20.081453,3.704682 4.397146,0 11.633393,-0.830957 7.790219,-0.86558 9.140524,-0.86558 1.592667,0 1.592667,0.519348 0,0.969449 -8.794292,4.085537 -8.794291,3.150711 -11.564147,3.150711 -1.211811,0 -5.124232,-1.246435 -2.042769,-0.657841 -6.924639,-2.077392 -8.517306,-2.49287 -12.914452,-4.293276 -5.712827,-2.354377 -7.790219,-2.354377 -2.458246,0 -8.032581,1.938899 -0.623217,0.242362 -0.969449,0.242362 -0.692464,0 -2.285131,-1.177189 -1.558044,-1.177188 -1.558044,-1.696536 0,-0.588595 3.670059,-1.246435 3.704682,-0.692464 6.855392,-0.692464 0.519348,0 1.904276,0.103869 z M 22.678988,26.297532 q 3.427697,0 5.85132,1.592667 2.458247,1.592667 2.458247,3.877798 0,2.562117 -1.488797,2.562117 -1.350305,0 -5.158856,-3.150711 -3.773928,-3.185334 -3.566189,-4.154783 0.138492,-0.727088 1.904275,-0.727088 z m 27.490817,6.890016 q 2.354377,1.107942 2.354377,1.765783 0,0.242362 -0.519348,0.76171 -0.173116,0.173116 -1.177188,1.419551 -0.20774,0.276986 -1.558044,1.765783 -0.553971,0.588595 -1.558044,1.765783 0.934826,-0.276985 1.177189,-0.346232 l 6.093682,-1.488797 3.947044,-1.211812 1.142565,0.207739 q 4.189407,1.696537 4.189407,2.804479 0,0.06925 -0.276986,0.519348 -1.038695,1.52342 -1.038695,6.301421 l 0.207739,7.167002 0.103869,3.773928 q 0,6.370668 -0.519348,8.032581 -1.107942,3.427696 -2.28513,3.427696 -0.519348,0 -1.073319,-1.869652 l -0.86558,-2.735233 q -0.06925,-0.311608 -0.657841,-1.765783 -2.735232,0 -8.067204,0.692464 l -4.847248,0.588595 q 0.03462,0.623217 0.03462,0.865579 0,2.527494 -0.934827,2.527494 -0.692463,0 -1.350304,-1.73116 -0.657841,-1.765783 -0.657841,-3.670059 0,-1.038696 0.173116,-3.496942 0.138493,-2.319754 0.138493,-7.305494 0,-9.036654 -1.800406,-10.698568 -0.346232,-0.311608 -0.346232,-0.415478 0,-0.346232 0.727087,-0.346232 0.242362,0 0.553971,0.06925 1.73116,0.380855 3.427696,0.380855 0.484725,0 1.488798,-0.173116 0.484724,-1.350305 0.76171,-2.008146 1.246435,-3.116087 1.246435,-5.331971 l -4.362523,1.038695 q -2.769855,0.623218 -4.466392,0.623218 -3.981667,0 -3.981667,-1.211812 0,-0.346232 1.384928,-0.553971 l 7.443987,-1.107942 4.708754,-0.934827 7.755596,-1.41955 q 3.185333,-0.588595 6.336044,-1.523421 2.562117,-0.76171 4.085537,-0.76171 1.073319,0 2.423624,1.004072 1.350304,0.96945 1.350304,1.765783 0,0.900203 -1.869652,0.900203 l -2.700609,-0.03462 q -1.142566,0 -4.535639,0.415478 l -8.517306,1.004073 q -0.484724,0.06925 -3.289203,0.553971 z m -5.608958,13.987771 q 3.496943,-0.588595 6.7169,-1.454174 1.696537,-0.484725 2.354377,-0.484725 2.423624,0 2.423624,1.246435 0,1.765783 -11.425654,2.631363 v 5.228102 l 1.038696,-0.173116 q 1.696536,-0.346232 4.189406,-0.900203 2.735232,-0.588594 4.397146,-0.588594 2.250507,0 2.250507,1.142565 0,1.142566 -6.232175,1.661913 l -3.947044,0.346232 q -0.830956,0.06925 -1.558044,0.06925 v 7.028508 q 7.47861,-0.900203 9.279017,-1.52342 1.211811,-0.415479 1.696536,-0.415479 1.62729,0 3.046841,1.558044 0.207739,-2.908348 0.207739,-3.496943 0,-16.757626 -0.65784,-17.657829 -0.450102,-0.692464 -1.661914,-0.692464 -0.346232,0 -0.727087,0.06925 l -9.279016,1.592667 q -0.346232,0.06925 -2.112015,0.276985 z M 42.241093,21.761894 q 2.181262,-0.207739 4.12016,1.177189 1.938899,1.384927 1.938899,3.116087 0,2.389001 -1.731159,2.389001 -1.107943,0 -3.219957,-2.735233 -2.077392,-2.735232 -1.73116,-3.704682 0.06925,-0.207739 0.623217,-0.242362 z m 15.199583,-5.539711 q 1.073319,-0.03462 3.912421,1.350304 2.873725,1.350305 2.873725,1.938899 0,0.657841 -3.843175,3.566189 -3.808551,2.873726 -7.270871,4.881871 l -0.553971,0.207739 0.276986,-0.830957 q 0.03462,-0.06925 1.107942,-1.661913 2.527493,-3.773928 2.804479,-6.474537 l 0.03462,-0.346232 -0.10387,-2.112015 0.138493,-0.242363 q 0.207739,-0.276985 0.623218,-0.276985 z"
         style="font-family:Kai;-inkscape-font-specification:Kai"
         id="path1169" />
    </g>
  </g>
</svg>
