<?xml version="1.0" encoding="UTF-8" standalone="no"?>
<!-- Created with Inkscape (http://www.inkscape.org/) -->

<svg
   width="360"
   height="360"
   viewBox="0 0 95.249998 95.250003"
   version="1.1"
   id="svg5"
   inkscape:version="1.1 (c4e8f9e, 2021-05-24)"
   sodipodi:docname="li.svg"
   xmlns:inkscape="http://www.inkscape.org/namespaces/inkscape"
   xmlns:sodipodi="http://sodipodi.sourceforge.net/DTD/sodipodi-0.dtd"
   xmlns="http://www.w3.org/2000/svg"
   xmlns:svg="http://www.w3.org/2000/svg">
  <sodipodi:namedview
     id="namedview7"
     pagecolor="#ffffff"
     bordercolor="#111111"
     borderopacity="1"
     inkscape:pageshadow="0"
     inkscape:pageopacity="0"
     inkscape:pagecheckerboard="1"
     inkscape:document-units="mm"
     showgrid="false"
     units="px"
     inkscape:zoom="0.69130191"
     inkscape:cx="355.12704"
     inkscape:cy="309.56084"
     inkscape:window-width="1312"
     inkscape:window-height="956"
     inkscape:window-x="0"
     inkscape:window-y="25"
     inkscape:window-maximized="0"
     inkscape:current-layer="layer1" />
  <defs
     id="defs2" />
  <g
     inkscape:label="Layer 1"
     inkscape:groupmode="layer"
     id="layer1">
    <g
       aria-label="禮"
       id="text2582"
       style="font-size:70.9083px;line-height:1.25;font-family:'Kaiti SC';-inkscape-font-specification:'Kaiti SC';stroke-width:0.264583">
      <path
         d="m 72.821179,27.864897 q 2.481791,1.134533 2.765424,1.914524 0.354541,0.779992 -0.496358,1.772708 -0.42545,0.42545 -0.709083,0.8509 -0.212725,0.425449 -0.496358,1.134532 -0.283634,0.709083 -0.709083,2.127249 -0.42545,1.347258 -1.063625,3.545416 -0.567266,1.914524 -1.134533,3.261781 -0.567266,1.27635 -1.347258,2.198158 -0.850899,0.850899 -1.63089,0.779991 -0.709084,-0.141816 -1.063625,-1.134533 -0.07091,-0.283633 -0.709083,-0.354541 -0.638175,-0.07091 -1.559983,0.141816 -2.978148,0.567267 -7.161738,1.27635 -4.112682,0.638175 -7.94173,1.276349 -0.354542,0.992717 -0.992716,0.8509 -0.638175,-0.141817 -1.063625,-1.843616 -1.489074,-5.105398 -2.694515,-8.012638 -1.134533,-2.90724 -2.127249,-4.325407 -0.8509,-1.134532 -0.212725,-1.701799 0.638174,-0.567266 3.545415,0.354542 1.559982,-0.141817 3.049057,-0.354542 1.559982,-0.283633 2.90724,-0.567266 -0.709083,-5.176306 -2.339974,-6.736289 -1.701799,-1.489074 -1.134533,-2.269066 0.567267,-0.779991 2.623608,-0.07091 1.418166,0.42545 2.269065,0.8509 0.8509,0.354541 1.205441,0.921808 0.42545,0.567266 0.42545,1.489074 0.07091,0.8509 -0.07091,2.269066 -0.07091,0.709083 -0.141817,1.559982 0,0.8509 -0.07091,1.489075 0.779991,-0.141817 1.347258,-0.212725 0.638174,-0.141817 1.276349,-0.283633 0.638175,-0.141817 1.418166,-0.283634 0.779992,-0.212725 1.914524,-0.425449 0.283634,-3.899957 0.141817,-6.381748 -0.141817,-2.48179 -1.063625,-4.041773 -0.850899,-1.347258 -0.212724,-1.772707 0.709083,-0.496359 2.765423,0.425449 1.347258,0.567267 2.056341,0.992717 0.779991,0.425449 1.063625,0.992716 0.283633,0.496358 0.141816,1.063624 -0.07091,0.567267 -0.42545,1.418166 -0.283633,0.638175 -0.496358,1.134533 -0.141816,0.42545 -0.283633,1.134533 -0.141817,0.709083 -0.283633,1.630891 -0.07091,0.921808 -0.283633,2.481791 1.347257,-0.354542 2.48179,-0.567267 1.134533,-0.283633 1.772708,-0.709083 1.063624,-0.42545 1.914524,-0.354541 0.8509,0.07091 2.836332,1.063624 z M 33.821613,46.371964 q 0.283633,0.921808 0.496358,1.772708 2.127249,0.07091 3.545415,0.283633 1.418166,0.141816 2.198157,0.567266 0.779992,0.42545 1.134533,0.992717 0.354542,0.496358 0.567267,1.276349 0.283633,1.701799 -0.496358,2.198157 -0.779992,0.42545 -2.269066,-0.496358 -0.496358,-0.212725 -1.418166,-0.921808 -0.8509,-0.779991 -2.907241,-2.694515 0.141817,0.992716 0.141817,2.410882 0.07091,1.418166 0.07091,3.474507 v 13.118036 q 0,1.063624 -0.141816,2.48179 -0.141817,1.418166 -0.354542,2.765424 -0.212725,1.347258 -0.42545,2.410882 -0.212725,1.063625 -0.354541,1.418166 -0.921808,1.772708 -2.127249,-0.212724 -1.27635,-2.623608 -1.489075,-4.254499 -0.212724,-1.63089 0.354542,-3.545415 0.42545,-1.489074 0.779991,-3.829048 0.354542,-2.339974 0.567267,-5.176306 0.283633,-2.694516 0.42545,-4.538131 0.141816,-1.914525 0.212724,-3.119966 0.07091,-1.276349 0.07091,-2.05634 0,-0.8509 -0.07091,-1.489075 -1.843615,3.049057 -3.687231,5.389031 -1.843616,2.339974 -3.687232,4.18359 -1.843616,1.843616 -3.829048,3.33269 -1.985433,1.418166 -4.112682,2.694516 -1.205441,0.567266 -1.418166,0.283633 -0.141817,-0.283633 0.8509,-1.27635 1.701799,-1.489074 2.90724,-2.694515 1.27635,-1.205441 2.339974,-2.410882 1.134533,-1.205441 2.198157,-2.623607 1.063625,-1.418167 2.339974,-3.403599 2.552699,-3.829048 4.467223,-7.161739 1.914525,-3.33269 2.836333,-5.81448 -0.779992,0.212725 -1.559983,0.425449 -0.709083,0.141817 -1.701799,0.42545 -0.921808,0.283634 -2.339974,0.779992 -1.418166,0.425449 -3.616324,1.276349 -1.134533,0.496358 -2.410882,0.141817 -1.205441,-0.42545 -3.049057,-1.843616 -0.779991,-0.638175 -0.567266,-0.992716 0.212724,-0.354542 1.701799,-0.212725 1.559982,0 3.75814,-0.283634 2.198157,-0.283633 4.18359,-0.921807 1.418166,-0.42545 2.269065,-0.638175 0.921808,-0.283633 1.489075,-0.496358 0.638174,-0.212725 1.063624,-0.496358 0.42545,-0.354542 0.921808,-0.779992 0.992716,-0.709083 1.630891,-0.779991 0.638175,-0.07091 2.269066,0.779991 2.48179,1.489075 2.623607,2.269066 0.141817,0.709083 -1.630891,1.843616 -0.42545,0.283633 -0.8509,0.709083 -0.425449,0.354541 -0.992716,1.063624 -0.496358,0.709083 -1.205441,1.772708 -0.709083,1.063624 -1.701799,2.623607 z m 33.894168,8.438088 q 1.914524,0.921808 2.056341,1.489074 0.212725,0.567267 -0.709083,1.347258 -2.056341,1.914524 -2.269066,2.552699 -0.212725,0.567266 0.42545,0.921808 2.339974,1.772708 -0.850899,2.056341 -1.134533,0.07091 -2.836333,0.283633 -1.701799,0.141817 -3.75814,0.42545 -2.05634,0.212725 -4.254498,0.496358 -2.127249,0.212725 -4.18359,0.42545 -0.212724,1.418166 -0.921807,1.489074 -0.638175,0.07091 -0.992717,-0.779991 -1.063624,-2.481791 -2.05634,-4.254498 -0.992717,-1.843616 -1.772708,-3.119966 -0.567266,-0.779991 -0.212725,-1.205441 0.42545,-0.42545 2.623607,0 1.985433,-0.212725 4.041773,-0.567266 2.056341,-0.354542 3.829049,-0.638175 1.772707,-0.354542 3.190873,-0.638175 1.418166,-0.283633 2.198158,-0.496358 1.276349,-0.354541 2.198157,-0.567266 0.921808,-0.212725 1.559983,-0.141817 0.709083,0.07091 1.276349,0.354542 0.638175,0.212725 1.418166,0.567266 z m -5.176306,16.663451 q 2.198158,-0.212725 4.112682,-0.496358 1.914524,-0.283633 3.474507,-0.567266 3.049057,-0.567267 4.821764,-0.42545 1.772708,0.212725 3.403599,1.489074 1.701799,1.489074 1.205441,2.127249 -0.42545,0.709083 -3.970865,0.354542 -3.474507,-0.283634 -7.445372,-0.212725 -3.899957,0.07091 -7.870821,0.354541 -3.899957,0.354542 -7.658097,0.8509 -3.687232,0.496358 -6.594472,1.134533 -1.27635,0.354541 -2.198158,0.42545 -0.921808,0.141816 -1.701799,0.07091 -0.709083,-0.07091 -1.418166,-0.42545 -0.638175,-0.354541 -1.559983,-0.992716 -0.992716,-0.779992 -0.921807,-1.205441 0.141816,-0.42545 1.63089,-0.42545 5.105398,0 8.154455,-0.283633 3.049057,-0.212725 4.538132,-0.567267 -1.063625,-1.276349 -1.914525,-2.410882 -0.850899,-1.134533 -1.489074,-2.127249 -0.567266,-0.638175 -0.141817,-1.134533 0.496359,-0.496358 2.056341,0.07091 2.269066,0.567267 2.907241,1.7018 0.709083,1.205441 0.354541,3.687231 1.701799,-0.212725 3.33269,-0.354541 1.630891,-0.141817 3.049057,-0.283633 2.127249,-4.679948 1.843616,-5.814481 -0.638174,-1.843616 0,-2.198158 0.638175,-0.354541 2.836332,0.992717 1.7018,0.921808 1.7018,1.843616 0,0.850899 -1.134533,1.347257 -0.709083,0.283634 -1.418166,1.063625 -0.638175,0.779991 -1.985433,2.410882 z m 1.559983,-12.338044 q 0.141816,-1.559983 -0.567267,-2.056341 -0.638174,-0.567267 -2.552698,-0.212725 -3.899957,0.354541 -6.452656,0.779991 -2.552699,0.354542 -4.750856,0.709083 0.354541,1.347258 0.638175,2.410882 0.283633,1.063625 0.638174,2.269066 2.269066,-0.212725 5.03449,-0.567266 2.765424,-0.354542 4.679948,-0.709083 1.063624,-0.212725 1.630891,-0.42545 0.638174,-0.212725 0.992716,-0.42545 0.354541,-0.283633 0.496358,-0.709083 0.141817,-0.42545 0.212725,-1.063624 z M 47.861457,50.981004 q 0.709083,0 2.339974,-0.212725 1.701799,-0.283633 3.687231,-0.638175 1.985433,-0.42545 4.041774,-0.8509 2.05634,-0.496358 3.545415,-0.850899 2.198157,-0.496358 3.616323,-0.709083 1.418166,-0.283633 2.339974,-0.354542 0.921808,-0.07091 1.489074,0.07091 0.567267,0.141816 1.063625,0.425449 0.8509,0.567267 0.567266,1.134533 -0.283633,0.567267 -2.623607,1.134533 -1.063624,0.283633 -2.765424,0.638175 -1.630891,0.283633 -3.403598,0.638175 -1.772708,0.354541 -3.687232,0.638174 -1.843616,0.212725 -3.33269,0.42545 -3.261782,0.283633 -4.963581,0.283633 -1.630891,-0.07091 -2.198158,-0.283633 -1.489074,-0.354541 -1.489074,-0.8509 0,-0.496358 1.772708,-0.638175 z M 31.410731,21.128608 q 3.829048,0.354542 5.459939,1.914525 1.630891,1.489074 1.772707,3.545415 0.141817,1.559982 -0.425449,2.056341 -0.567267,0.496358 -2.410883,-0.283634 -0.638174,-0.283633 -2.269065,-1.559982 -1.559983,-1.27635 -3.75814,-3.616324 -1.205442,-1.205441 -0.921808,-1.701799 0.354541,-0.496358 2.552699,-0.354542 z m 36.659592,20.06705 q 0.141816,-0.567266 0.354541,-1.914524 0.283634,-1.347258 0.496358,-2.978149 -1.701799,0.42545 -3.119965,0.8509 -1.418166,0.354541 -3.119965,0.638175 l -0.496358,4.963581 q 1.489074,-0.283634 3.33269,-0.283634 1.489074,-0.141816 1.914524,-0.354541 0.42545,-0.212725 0.638175,-0.921808 z m 1.347258,-8.650813 q 0.141816,-1.914524 -0.42545,-2.198157 -0.496358,-0.283633 -2.623607,0.07091 -1.063625,0.141817 -1.559983,0.283633 -0.496358,0.07091 -1.347258,0.212725 l -0.496358,4.467223 q 2.339974,-0.638174 3.616323,-0.850899 1.347258,-0.283634 2.552699,0.141816 0.141817,-0.638175 0.141817,-1.205441 0.07091,-0.567266 0.141817,-0.921808 z m -8.934447,-1.134533 q -1.418166,0.283634 -2.90724,0.638175 -1.418166,0.283633 -2.694515,0.496358 l 0.283633,4.750856 q 1.205441,-0.283633 2.552699,-0.567266 1.347257,-0.354542 2.410882,-0.638175 z M 47.29419,33.892103 q 0.354542,1.347258 0.567267,2.410882 0.212725,0.992716 0.425449,1.914524 0.141817,0 0.212725,0 0.07091,-0.07091 0.212725,-0.07091 0.779992,0 1.843616,-0.141817 1.134533,-0.141816 2.127249,-0.354541 l -0.42545,-4.60904 q -1.347257,0.141817 -2.623607,0.42545 -1.205441,0.212725 -2.339974,0.42545 z m 12.621678,4.467223 q -0.992716,0.212725 -2.410882,0.496358 -1.347258,0.212725 -2.269066,0.354542 l 0.283633,4.538131 q 0.921808,-0.141817 1.843616,-0.212725 0.992716,-0.141817 2.056341,-0.42545 z m -10.352612,6.239931 q 1.559983,-0.141817 3.75814,-0.496359 l -0.42545,-4.538131 q -2.056341,0.354542 -4.325406,0 0.212725,1.063625 0.425449,2.269066 0.212725,1.134533 0.567267,2.765424 z"
         style="font-family:'Kaiti TC';-inkscape-font-specification:'Kaiti TC'"
         id="path2394" />
    </g>
  </g>
</svg>
