<?xml version="1.0" encoding="UTF-8" standalone="no"?>
<!-- Created with Inkscape (http://www.inkscape.org/) -->

<svg
   width="360"
   height="360"
   viewBox="0 0 95.249998 95.250003"
   version="1.1"
   id="svg5"
   inkscape:version="1.1 (c4e8f9e, 2021-05-24)"
   sodipodi:docname="ren.svg"
   xmlns:inkscape="http://www.inkscape.org/namespaces/inkscape"
   xmlns:sodipodi="http://sodipodi.sourceforge.net/DTD/sodipodi-0.dtd"
   xmlns="http://www.w3.org/2000/svg"
   xmlns:svg="http://www.w3.org/2000/svg">
  <sodipodi:namedview
     id="namedview7"
     pagecolor="#ffffff"
     bordercolor="#111111"
     borderopacity="1"
     inkscape:pageshadow="0"
     inkscape:pageopacity="0"
     inkscape:pagecheckerboard="1"
     inkscape:document-units="mm"
     showgrid="false"
     units="px"
     inkscape:zoom="0.69130191"
     inkscape:cx="161.28988"
     inkscape:cy="332.70558"
     inkscape:window-width="1312"
     inkscape:window-height="956"
     inkscape:window-x="0"
     inkscape:window-y="25"
     inkscape:window-maximized="0"
     inkscape:current-layer="layer1" />
  <defs
     id="defs2" />
  <g
     inkscape:label="Layer 1"
     inkscape:groupmode="layer"
     id="layer1">
    <g
       aria-label="ä»"
       id="text2582"
       style="font-size:70.9083px;line-height:1.25;font-family:'Kaiti SC';-inkscape-font-specification:'Kaiti SC';stroke-width:0.264583">
      <path
         d="m 33.42949,37.999749 q 0.623218,0.519348 0.96945,0.761711 2.008145,1.488797 2.077391,3.15071 0.03462,0.588595 -0.06925,1.246435 -0.173116,1.384928 -0.173116,1.558044 v 25.517295 q 0,6.855392 -2.181261,6.855392 -1.004073,0 -1.973522,-1.419551 -0.934827,-1.419551 -0.934827,-2.873725 0,-2.215885 0.519348,-5.054986 1.696537,-9.20977 1.696537,-16.238279 0,-9.417509 -0.934826,-12.048871 -4.951117,6.543783 -9.694495,11.079422 -4.708754,4.535638 -6.578407,4.535638 -0.450101,0 -0.450101,-0.415478 0,-0.553971 0.830956,-1.246435 0.796334,-0.657841 2.631363,-2.735232 l 5.920566,-6.82077 q 3.323827,-3.808551 7.236248,-11.4949 3.912421,-7.686349 3.912421,-10.386959 0,-0.830956 -0.207739,-1.800406 -0.138493,-0.727087 -0.138493,-1.177188 0,-0.830957 0.934826,-0.830957 1.661914,0 3.981668,1.661913 2.354377,1.661914 2.354377,2.873725 0,0.761711 -2.077392,3.670059 l -2.769855,4.189407 -3.46232,5.193479 q -0.311608,0.519348 -1.419551,2.250507 z m 38.951094,15.580438 q 2.146638,0 4.639508,1.592667 2.527493,1.592667 2.527493,2.942971 0,1.350305 -2.839102,1.350305 -1.073319,0 -3.877797,-0.346232 -2.527494,-0.276985 -5.297349,-0.276985 -9.763741,0 -21.535627,3.046841 -1.62729,0.415478 -2.700609,0.415478 -1.246435,0 -3.289204,-1.177189 -2.008145,-1.177188 -1.869652,-1.800406 0.103869,-0.588594 1.835029,-0.588594 0.86558,0 1.488797,-0.03462 l 2.59674,-0.346232 6.439914,-0.727087 q 5.608958,-0.657841 11.148669,-1.904276 l 7.513233,-1.696537 q 1.973522,-0.450101 3.219957,-0.450101 z m -5.85132,-21.466381 q 1.523421,0 2.908349,0.934827 1.419551,0.900203 1.419551,1.904275 0,1.315682 -6.232175,2.839102 -6.232175,1.488798 -11.668017,1.488798 -2.354377,0 -4.88187,-0.761711 -2.527494,-0.76171 -2.423624,-1.454174 0.06925,-0.380855 3.289203,-0.86558 2.250508,-0.311608 8.44806,-1.938899 8.067204,-2.146638 9.140523,-2.146638 z"
         style="font-family:Kai;-inkscape-font-specification:Kai"
         id="path1842" />
    </g>
  </g>
</svg>
