<?xml version="1.0" encoding="UTF-8" standalone="no"?>
<!-- Created with Inkscape (http://www.inkscape.org/) -->

<svg
   width="360"
   height="360"
   viewBox="0 0 95.249998 95.250003"
   version="1.1"
   id="svg5"
   inkscape:version="1.1 (c4e8f9e, 2021-05-24)"
   sodipodi:docname="shu.svg"
   xmlns:inkscape="http://www.inkscape.org/namespaces/inkscape"
   xmlns:sodipodi="http://sodipodi.sourceforge.net/DTD/sodipodi-0.dtd"
   xmlns="http://www.w3.org/2000/svg"
   xmlns:svg="http://www.w3.org/2000/svg">
  <sodipodi:namedview
     id="namedview7"
     pagecolor="#ffffff"
     bordercolor="#111111"
     borderopacity="1"
     inkscape:pageshadow="0"
     inkscape:pageopacity="0"
     inkscape:pagecheckerboard="1"
     inkscape:document-units="mm"
     showgrid="false"
     units="px"
     inkscape:zoom="0.69130191"
     inkscape:cx="355.12704"
     inkscape:cy="309.56084"
     inkscape:window-width="1312"
     inkscape:window-height="956"
     inkscape:window-x="0"
     inkscape:window-y="25"
     inkscape:window-maximized="0"
     inkscape:current-layer="layer1" />
  <defs
     id="defs2" />
  <g
     inkscape:label="Layer 1"
     inkscape:groupmode="layer"
     id="layer1">
    <g
       aria-label="æ•"
       id="text2582"
       style="font-size:70.9083px;line-height:1.25;font-family:'Kaiti SC';-inkscape-font-specification:'Kaiti SC';stroke-width:0.264583">
      <path
         d="m 31.888758,36.355152 q 2.319754,-9.902234 2.319754,-14.264756 0,-2.146638 -0.86558,-3.843175 -0.207739,-0.415478 -0.207739,-0.519348 0,-0.934826 1.142565,-0.934826 1.488798,0 3.600812,1.315681 2.112015,1.315682 2.112015,2.250508 0,0.657841 -0.276985,1.246435 l -0.657841,1.419551 q -0.10387,0.276986 -0.830957,2.389001 l -1.038695,3.046841 q -0.10387,0.242362 -1.107943,3.877797 -0.311608,1.107943 -1.004072,3.289204 l 7.513233,-1.696537 q 0.242362,-1.246435 0.242362,-2.112015 0,-0.311608 -0.103869,-0.65784 -0.276986,-0.86558 -0.276986,-1.073319 0,-0.727087 0.76171,-0.727087 0.796334,0 2.527494,1.384927 1.765783,1.350305 1.765783,1.973523 0,0.276985 -0.346232,0.865579 -0.519348,0.86558 -0.761711,1.661914 l -1.073319,3.15071 q -0.934826,2.908349 -3.704682,8.586553 5.158856,3.219957 5.158856,6.50916 0,1.904276 -1.073319,1.904276 -0.519347,0 -1.142565,-0.657841 L 42.656571,52.801169 Q 42.552702,52.6973 40.752296,51.07001 q -0.484725,-0.450102 -1.488798,-1.419551 -3.531566,3.566189 -8.413436,5.989812 -4.88187,2.423624 -8.551929,2.423624 -1.073319,0 -1.073319,-0.380855 0,-0.346232 1.661913,-0.900203 l 1.558044,-0.727087 3.185334,-1.488798 q 4.604885,-2.146638 8.967407,-6.786146 -1.142565,-0.657841 -1.52342,-0.934826 l -2.215885,-1.523421 q -2.389,-1.661913 -2.389,-2.28513 0,-0.415479 0.450101,-2.354378 l 0.311609,-1.454174 q -2.285131,0.900203 -2.942971,1.107942 l -4.881871,1.62729 q -1.211812,0.415479 -1.800406,0.415479 -1.107942,0 -2.458247,-1.315682 -1.315681,-1.350304 -1.315681,-2.458246 0,-0.692464 0.588594,-0.657841 l 4.570262,0.346232 6.474537,-1.419551 q 0.830957,-0.173116 2.423624,-0.519348 z m 6.578407,9.036654 q 2.215884,-3.393073 3.877798,-9.452132 l -7.720973,2.146638 -0.588594,2.008145 -0.484725,1.869652 -0.138493,0.380856 0.761711,0.900203 q 0.900203,0.519348 2.596739,1.315681 0.553971,0.242362 1.696537,0.830957 z m -9.936857,13.295306 q 0.450101,-0.03462 1.038696,1.765783 0.588594,1.800406 0.588594,3.116088 0,3.531566 -1.73116,7.167001 -1.696536,3.635436 -3.358449,3.635436 -1.627291,0 -1.627291,-4.293277 0,-1.696536 2.354378,-5.435841 1.246435,-1.938899 1.558043,-3.012218 l 0.553971,-1.835029 q 0.311609,-1.073319 0.623218,-1.107943 z m 31.749469,4.743378 q 0.242363,-0.03462 1.073319,0.76171 l 1.800406,1.869653 2.735233,2.596739 q 2.49287,2.389001 3.150711,2.908349 2.769855,2.146638 2.769855,3.116087 0,1.592667 -3.947044,2.665986 -3.947044,1.107942 -9.659871,1.107942 -19.458236,0 -22.608946,-14.95722 l -0.657841,-3.219957 q -0.10387,-0.450101 -0.10387,-0.86558 0,-1.384927 0.692464,-1.384927 0.692464,0 1.904276,3.566189 4.258653,12.36048 16.411394,12.36048 l 4.708755,0.06925 4.570261,-0.796334 q 0.727087,-0.346232 0.727087,-0.900203 0,-0.10387 -0.103869,-0.380855 l -0.623218,-1.62729 -2.285131,-4.258653 -0.553971,-1.419551 q -0.276985,-0.484725 -0.311608,-0.796334 0,-0.380855 0.311608,-0.415478 z m -14.680234,-6.405291 2.665986,-0.03462 q 7.270871,0 7.270871,4.88187 0,2.077392 -1.454175,2.077392 -3.462319,0 -8.482682,-6.924639 z M 67.13517,44.560849 q 1.835029,0.727087 1.835029,1.592667 0,1.211812 -2.527493,1.211812 -1.523421,0 -9.902234,0.900203 -0.450101,0.03462 -1.384927,0.138493 -0.06925,0.623217 -0.10387,0.934826 -0.138493,1.661913 -1.107942,1.661913 -1.315682,0 -1.592667,-4.189406 -0.415479,-6.959262 -2.112015,-9.486756 l -0.96945,-1.454174 q -0.242362,-0.380855 -0.242362,-0.727087 0,-1.073319 0.96945,-1.073319 0.415478,0 1.073319,0.276986 1.419551,0.588594 2.873725,0.588594 1.904275,0 4.501015,-0.796333 l 3.496943,-1.004073 2.077391,-1.142566 q 0.934827,-0.519347 1.696537,-0.519347 1.038696,0 3.670058,1.835029 2.631363,1.800406 2.631363,2.527493 0,0.450102 -0.796333,1.211812 -3.219957,3.046841 -4.085537,7.513233 z m -13.052945,-7.47861 q 1.004073,4.431769 1.004073,8.032581 l -0.03462,1.038696 9.486755,-1.211812 0.380855,-4.362522 0.20774,-2.389001 q 0.06925,-0.900203 0.06925,-1.488797 0,-1.523421 -0.934826,-1.523421 -0.380855,0 -2.873725,0.484725 z m 8.725045,17.380844 q 2.769856,-0.346232 4.501016,-0.346232 4.085537,0 7.097755,1.869652 3.012218,1.869653 3.012218,4.397146 0,2.112015 -1.765783,2.112015 -0.588595,0 -1.592667,-0.519348 L 71.116837,60.487519 Q 68.450851,59.171837 62.80727,54.463083 Z"
         style="font-family:Kai;-inkscape-font-specification:Kai"
         id="path2216" />
    </g>
  </g>
</svg>
