<?xml version="1.0" encoding="UTF-8" standalone="no"?>
<!-- Created with Inkscape (http://www.inkscape.org/) -->

<svg
   width="360"
   height="360"
   viewBox="0 0 95.249998 95.250003"
   version="1.1"
   id="svg5"
   inkscape:version="1.1 (c4e8f9e, 2021-05-24)"
   sodipodi:docname="zhong.svg"
   xmlns:inkscape="http://www.inkscape.org/namespaces/inkscape"
   xmlns:sodipodi="http://sodipodi.sourceforge.net/DTD/sodipodi-0.dtd"
   xmlns="http://www.w3.org/2000/svg"
   xmlns:svg="http://www.w3.org/2000/svg">
  <sodipodi:namedview
     id="namedview7"
     pagecolor="#ffffff"
     bordercolor="#111111"
     borderopacity="1"
     inkscape:pageshadow="0"
     inkscape:pageopacity="0"
     inkscape:pagecheckerboard="1"
     inkscape:document-units="mm"
     showgrid="false"
     units="px"
     inkscape:zoom="0.69130191"
     inkscape:cx="355.12704"
     inkscape:cy="309.56084"
     inkscape:window-width="1312"
     inkscape:window-height="956"
     inkscape:window-x="0"
     inkscape:window-y="25"
     inkscape:window-maximized="0"
     inkscape:current-layer="layer1" />
  <defs
     id="defs2" />
  <g
     inkscape:label="Layer 1"
     inkscape:groupmode="layer"
     id="layer1">
    <g
       aria-label="忠"
       id="text2582"
       style="font-size:70.9083px;line-height:1.25;font-family:'Kaiti SC';-inkscape-font-specification:'Kaiti SC';stroke-width:0.264583">
      <path
         d="m 24.687134,54.515016 0.484724,0.692464 q 1.558044,2.527493 1.558044,5.955189 0,3.600812 -1.973522,7.305494 -1.973522,3.704682 -3.912421,3.704682 -1.661913,0 -1.661913,-2.700609 0,-2.146638 1.073319,-4.12016 3.808551,-7.028509 4.22403,-9.97148 0.103869,-0.830957 0.207739,-0.86558 z M 44.491601,31.836823 v -1.177188 q 0,-8.655799 -1.454174,-10.352335 L 41.860238,18.956995 Q 41.34089,18.403024 41.34089,17.81443 q 0,-0.86558 1.073319,-0.86558 1.973522,0 4.258653,1.038696 2.285131,1.038695 2.285131,1.973522 0,0.276985 -0.207739,1.073319 l -0.173116,1.661913 -0.450102,2.942972 q -0.103869,0.865579 -0.103869,3.358449 0,0.415479 -0.138493,2.250508 l 4.812624,-0.76171 q 2.354377,-0.380855 5.678204,-1.62729 0.900203,-0.346232 1.454174,-0.346232 1.281058,0 3.947044,2.042768 2.665986,2.008145 2.665986,2.977595 0,0.450101 -0.553971,0.934826 l -1.315681,1.246435 q -2.319754,2.146638 -4.293276,7.028509 1.038695,1.107942 1.038695,1.488797 0,1.350305 -2.804478,1.350305 -0.484725,0 -2.631363,0.346232 -1.419551,0.207739 -4.362523,0.519347 l -3.704681,0.380856 0.03462,0.900203 q 0,0.76171 -0.03462,1.107942 l -0.276986,2.735232 q -0.346232,3.773928 -1.211812,3.773928 -1.142565,0 -1.315681,-2.596739 l -0.242362,-2.839102 q -0.06925,-0.934826 -0.173116,-2.769856 l -8.725045,1.107943 q 0.103869,0.553971 0.103869,1.073319 0,1.835029 -1.107942,1.869652 -1.246435,0.06925 -2.769856,-5.74745 -1.938899,-7.270871 -4.639508,-10.07535 -1.004072,-1.073319 -1.004072,-1.765783 0,-0.900203 1.038695,-0.900203 0.242363,0 0.588595,0.06925 2.042768,0.553971 3.531566,0.553971 1.281058,0 2.873725,-0.207739 z m -11.356408,3.739305 q 1.558044,4.258653 2.458247,10.525451 l 9.071277,-1.142565 V 34.087331 Z m 14.784104,9.002031 9.071277,-1.315681 q 0.588594,-4.154784 0.830957,-6.232175 0.242362,-1.869653 0.450101,-2.70061 0.138493,-0.553971 0.138493,-1.004072 0,-1.315682 -0.900203,-1.315682 l -0.76171,0.276986 -1.869653,0.242362 -6.959262,1.038696 z m 11.529524,18.073307 q 0.138493,-0.03462 0.415478,0.242363 l 1.142566,0.969449 2.354377,1.973522 q 1.177189,0.96945 6.197552,4.050914 3.566189,2.146638 3.566189,2.908348 0,2.077392 -6.093682,3.773929 -6.093683,1.731159 -13.4338,1.731159 -13.606915,0 -19.008134,-9.86761 -3.185334,-5.85132 -3.185334,-10.040726 0,-1.73116 0.934827,-1.73116 0.86558,0 2.008145,3.081464 3.012218,8.101828 6.855392,11.010176 3.877798,2.908348 11.633394,2.908348 10.594697,0 10.594697,-2.008145 0,-0.173116 -0.276985,-0.588594 l -1.281058,-2.458247 -1.627291,-3.116088 -0.76171,-1.661913 q -0.380855,-0.553971 -0.380855,-0.830957 0,-0.276985 0.346232,-0.346232 z m -16.930742,-6.50916 q 4.570262,0 7.617103,1.869652 3.046841,1.869653 3.046841,4.708755 0,2.008145 -2.077392,2.008145 -3.185334,0 -7.513233,-6.924639 -0.346232,-0.553971 -1.073319,-1.661913 z m 18.454163,-4.189407 q 2.700609,-0.173116 4.397145,-0.173116 4.674131,0 7.686349,2.042769 3.012218,2.042768 3.012218,5.158856 0,2.008145 -1.869652,2.008145 -3.947044,0 -13.22606,-9.036654 z"
         style="font-family:Kai;-inkscape-font-specification:Kai"
         id="path2038" />
    </g>
  </g>
</svg>
